<?xml version="1.0" standalone="no"?>
<!DOCTYPE svg PUBLIC "-//W3C//DTD SVG 1.1//EN" "http://www.w3.org/Graphics/SVG/1.1/DTD/svg11.dtd" >
<!--
2013-9-30: Created.
-->
<svg>
<metadata>
Created by iconfont
</metadata>
<defs>

<font id="iconfont" horiz-adv-x="1024" >
  <font-face
    font-family="iconfont"
    font-weight="500"
    font-stretch="normal"
    units-per-em="1024"
    ascent="896"
    descent="-128"
  />
    <missing-glyph />
    
    <glyph glyph-name="less1" unicode="&#58926;" d="M1225.4 458c0 41 6.4 65.2 6.4 109.2 0 68.4-25.2 90.4-81 90.4h-41v-48.4h12.6c28.4 0 34.6-9.4 34.6-44.2 0-32.6-3.2-65.2-3.2-103 0-48.4 15.8-67.2 47.2-74.6v-3.2c-31.6-7.4-47.2-26.2-47.2-74.6 0-37.8 3.2-68.4 3.2-103 0-35.8-7.4-45.2-34.6-45.2v-1h-12.6V110h41c55.6 0 81 22 81 90.4 0 45.2-6.4 68.4-6.4 109.2 0 22 13.6 45.2 54.6 47.2v54.6c-41 1.4-54.6 24.6-54.6 46.6z m-211.2-64c-31.6 12.6-61 20-61 41 0 15.8 12.6 25.2 35.8 25.2s44.2-9.4 67.2-26.2l42 55.6c-26.2 20-62 41-110.4 41-71.4 0-119.8-41-119.8-98.8 0-51.4 45.2-77.8 83-92.4 32.6-12.6 64.2-23.2 64.2-44.2 0-15.8-12.6-26.2-41-26.2-26.2 0-52.6 10.6-81 32.6l-42-61c31.6-26.2 79.8-44.2 119.8-44.2 84 0 129.2 44.2 129.2 102s-45 82-86 95.6z m-717.8-118.8c-7.4 0-16.8 6.4-16.8 26.2V657.8H130.4c-56.8 0-82-22-82-90.4 0-45.2 6.4-70.4 6.4-109.2 0-22-13.6-45.2-54.6-47.2v-54.6c41-1 54.6-24.2 54.6-46.2 0-38.8-6.4-62-6.4-107.2 0-68.4 25.2-90.4 81-90.4h41v48.4h-12.6c-26.2 0-34.6 10.6-34.6 45.2s3.2 64.2 3.2 103c0 48.4-15.8 67.2-47.2 74.6v3.2c31.6 7.4 47.2 26.2 47.2 74.6 0 37.8-3.2 68.4-3.2 103s7.4 44.2 34.6 44.2H186v-301.6c0-64.2 22-106.2 86.2-106.2 20 0 35.8 3.2 47.2 7.4l-10.6 68.4c-6.2-1.6-9.2-1.6-12.4-1.6zM759.8 394c-32.6 12.6-62 20-62 41 0 15.8 12.6 25.2 35.8 25.2 23.2 0 44.2-9.4 67.2-26.2l42 55.6c-26.2 20-62 41-110.4 41-71.4 0-119.8-41-119.8-98.8 0-51.4 45.2-77.8 83-92.4 32.6-12.6 64.2-23.2 64.2-44.2 0-15.8-12.6-26.2-41-26.2-26.2 0-52.6 10.6-81 32.6l-41-61c31.6-26.2 79.8-44.2 119.8-44.2 84 0 129.2 44.2 129.2 102 0.2 57.8-45 82-86 95.6z m-310 137.6c-76.8 0-150.2-64.2-148.2-165 0-104 68.4-165 158.6-165 37.8 0 79.8 13.6 112.4 35.8l-31.6 55.6c-23.2-13.6-45.2-20-68.4-20-42 0-74.6 20-83 68.4H580c1 7.4 3.2 22 3.2 38.8 1.2 85.2-45.2 151.4-133.4 151.4z m-60-132.4c6.4 42 31.6 62 61 62 37.8 0 52.6-26.2 52.6-62h-113.6z"  horiz-adv-x="1280" />

    
    <glyph glyph-name="EmailHili" unicode="&#58889;" d="M1063.98931517 751.3569622699999h-842.19898857c-57.93026182 0-105.2981391-41.87729802-105.2981391-93.06066159v-558.36397103c0-51.18336433 47.36787652-93.06066158 105.2981391-93.06066158h842.19898857c57.93026182 0 105.2981391 41.87729802 105.2981391 93.06066158v558.36397103c0 51.18336433-47.36787652 93.06066158-105.2981391 93.06066159z m0-186.12132317l-421.09949466-232.65165473-421.09949391 232.65165473v93.06066158l421.09949391-232.65165473 421.09949466 232.65165473v-93.06066158z"  horiz-adv-x="1385" />

    
    <glyph glyph-name="less2" unicode="&#59087;" d="M1225.4 458c0 41 6.4 65.2 6.4 109.2 0 68.4-25.2 90.4-81 90.4h-41v-48.4h12.6c28.4 0 34.6-9.4 34.6-44.2 0-32.6-3.2-65.2-3.2-103 0-48.4 15.8-67.2 47.2-74.6v-3.2c-31.6-7.4-47.2-26.2-47.2-74.6 0-37.8 3.2-68.4 3.2-103 0-35.8-7.4-45.2-34.6-45.2v-1h-12.6V110h41c55.6 0 81 22 81 90.4 0 45.2-6.4 68.4-6.4 109.2 0 22 13.6 45.2 54.6 47.2v54.6c-41 1.4-54.6 24.6-54.6 46.6z m-211.2-64c-31.6 12.6-61 20-61 41 0 15.8 12.6 25.2 35.8 25.2s44.2-9.4 67.2-26.2l42 55.6c-26.2 20-62 41-110.4 41-71.4 0-119.8-41-119.8-98.8 0-51.4 45.2-77.8 83-92.4 32.6-12.6 64.2-23.2 64.2-44.2 0-15.8-12.6-26.2-41-26.2-26.2 0-52.6 10.6-81 32.6l-42-61c31.6-26.2 79.8-44.2 119.8-44.2 84 0 129.2 44.2 129.2 102s-45 82-86 95.6z m-717.8-118.8c-7.4 0-16.8 6.4-16.8 26.2V657.8H130.4c-56.8 0-82-22-82-90.4 0-45.2 6.4-70.4 6.4-109.2 0-22-13.6-45.2-54.6-47.2v-54.6c41-1 54.6-24.2 54.6-46.2 0-38.8-6.4-62-6.4-107.2 0-68.4 25.2-90.4 81-90.4h41v48.4h-12.6c-26.2 0-34.6 10.6-34.6 45.2s3.2 64.2 3.2 103c0 48.4-15.8 67.2-47.2 74.6v3.2c31.6 7.4 47.2 26.2 47.2 74.6 0 37.8-3.2 68.4-3.2 103s7.4 44.2 34.6 44.2H186v-301.6c0-64.2 22-106.2 86.2-106.2 20 0 35.8 3.2 47.2 7.4l-10.6 68.4c-6.2-1.6-9.2-1.6-12.4-1.6zM759.8 394c-32.6 12.6-62 20-62 41 0 15.8 12.6 25.2 35.8 25.2 23.2 0 44.2-9.4 67.2-26.2l42 55.6c-26.2 20-62 41-110.4 41-71.4 0-119.8-41-119.8-98.8 0-51.4 45.2-77.8 83-92.4 32.6-12.6 64.2-23.2 64.2-44.2 0-15.8-12.6-26.2-41-26.2-26.2 0-52.6 10.6-81 32.6l-41-61c31.6-26.2 79.8-44.2 119.8-44.2 84 0 129.2 44.2 129.2 102 0.2 57.8-45 82-86 95.6z m-310 137.6c-76.8 0-150.2-64.2-148.2-165 0-104 68.4-165 158.6-165 37.8 0 79.8 13.6 112.4 35.8l-31.6 55.6c-23.2-13.6-45.2-20-68.4-20-42 0-74.6 20-83 68.4H580c1 7.4 3.2 22 3.2 38.8 1.2 85.2-45.2 151.4-133.4 151.4z m-60-132.4c6.4 42 31.6 62 61 62 37.8 0 52.6-26.2 52.6-62h-113.6z"  horiz-adv-x="1280" />

    
    <glyph glyph-name="QQ" unicode="&#58890;" d="M511.999-128a512 512 0 1 1-512 512 512 512 0 0 1 512-512zM735.765 291.578c-3.55 49.47-36.192 90.932-55.09 112.47a70.383 70.383 0 0 1-15.577 67.003v1.718c0 97.235-68.028 167.254-153.35 167.55-85.333-0.342-153.35-70.315-153.35-167.55v-1.718a70.383 70.383 0 0 1-15.576-67.003c-18.898-21.413-51.54-62.874-55.09-112.47a75.39 75.39 0 0 1 7.554-40.425c7.555-10.308 28.513 2.06 43.406 34.93a210.33 210.33 0 0 1 35.499-67.914c-36.307-8.477-46.729-44.897-34.475-64.853 8.59-14.086 28.445-25.657 62.419-25.657 60.473 0 87.267 16.611 99.18 28.057a16.259 16.259 0 0 0 20.844 0c11.913-11.57 38.684-28.057 99.18-28.057 34.02 0 53.715 11.57 62.419 25.657 12.253 19.922 1.831 56.342-34.475 64.853a211.627 211.627 0 0 1 35.499 67.914c14.893-32.87 35.85-45.124 43.406-34.93a76.493 76.493 0 0 1 7.577 40.425z"  horiz-adv-x="1024" />

    
    <glyph glyph-name="html1" unicode="&#58894;" d="M708.923077 896L114.806154 896C66.166154 896 59.076923 888.910769 59.076923 840.270769l0-912.541538C59.076923-120.91076899999996 66.166154-128 114.806154-128l794.387692 0c48.64 0 55.729231 7.089231 55.729231 55.729231L964.923077 640 708.923077 896zM295.384615 246.15384600000004l-39.384615 0L256 344.61538499999995l-118.153846 0 0-98.461538-39.384615 0 0 236.307692 39.384615 0L137.846154 384l118.153846 0 0 98.461538 39.384615 0L295.384615 246.15384600000004zM512 443.076923l-78.769231 0 0-196.923077-39.384615 0 0 196.923077L315.076923 443.076923l0 39.384615 196.923077 0L512 443.076923zM748.307692 246.15384600000004l-39.384615 0 0 186.092308L655.753846 246.15384600000004 624.246154 246.15384600000004l-53.169231 186.092308L571.076923 246.15384600000004l-39.384615 0 0 236.307692 59.470769 0 48.836923-161.28 48.836923 161.28L748.307692 482.461538 748.307692 246.15384600000004zM925.538462 246.15384600000004L787.692308 246.15384600000004l0 236.307692 39.384615 0 0-196.923077 98.461538 0L925.538462 246.15384600000004zM795.017846 634.092308c-53.878154 0-92.002462 38.084923-92.002462 91.963077L703.015385 882.215385l248.162462-248.123077L795.017846 634.092308z"  horiz-adv-x="1024" />

    
    <glyph glyph-name="xueli5" unicode="&#59017;" d="M1241.549624 674.094968L655.121782 893.851947a32.73847 32.73847 0 0 1-23.32616 0L47.413934 674.094968a32.73847 32.73847 0 0 1-21.689236-29.873854 33.556932 33.556932 0 0 1 20.052313-31.101546l58.110784-25.372314-45.015396-163.69235a73.252326 73.252326 0 1 1 85.120021-90.849254A72.843096 72.843096 0 0 1 123.121646 407.685669l40.923087 153.461578 104.353873-45.424627L155.041654 77.436354a32.329239 32.329239 0 0 1 9.003079-28.646161 31.920008 31.920008 0 0 1 30.692316-9.821541L385.847867 77.436354l237.353907-197.658512a31.920008 31.920008 0 0 1 21.280005-7.775387 32.329239 32.329239 0 0 1 18.82462 6.138463L941.583393 77.436354l151.824654-37.64924a31.920008 31.920008 0 0 1 30.283085 7.775386 33.556932 33.556932 0 0 1 10.230772 29.873854L1056.168038 524.316468a27.418469 27.418469 0 0 1-2.455385 6.138463l189.473894 81.846175a33.147701 33.147701 0 0 1 0 60.9754z m-180.880046-558.600143L941.583393 144.959448a33.147701 33.147701 0 0 1-27.009237-5.320001l-268.864684-193.156973-229.987751 191.520049a31.510777 31.510777 0 0 1-27.418469 6.956925l-156.326194-31.101546L327.737083 489.122613l301.603154-132.181572a40.923087 40.923087 0 0 1 13.504618-2.455385 35.603086 35.603086 0 0 1 13.095388 2.455385l335.160086 146.913883z m-416.187799 307.741617L146.447806 640.947267l498.033973 187.018509L1142.106521 640.947267z"  horiz-adv-x="1263" />

    
    <glyph glyph-name="xingbie3" unicode="&#58957;" d="M343.608131 316.60913c146.910545 19.604617 260.07137 140.520433 260.07137 286.779559 0 159.907909-135.060919 289.695435-301.917301 289.695434C135.247039 893.084123 0 763.296598 0 603.357669c0-146.352186 113.160825-267.143922 260.07137-286.748539v-139.372694H64.614583v-80.031504h195.425767v-187.732817h83.567781v187.701797h195.518827v80.000484h-195.518827v139.434734zM83.69186 603.388689c0 115.735482 97.619824 209.47781 218.22544 209.47781 120.605616 0 218.19442-93.742328 218.19442-209.353731 0-115.704462-97.588804-209.384751-218.19442-209.38475-120.605616-0.09306-218.22544 93.680288-218.22544 209.260671z m491.387235-441.507134c0 146.259126 113.005725 267.330042 260.13341 286.841598l-0.06204 293.94517-79.938445-76.774409-59.093029 56.766533L876.655176 896l180.691284-173.277514-59.093029-56.673472-79.783345 76.681349 0.06204-293.91415c146.910545-19.542577 260.07137-140.334313 260.22647-286.624459 0.1551-160.125049-134.967859-289.726455-301.700161-289.850534-166.794341-0.1551-301.88628 129.663446-302.04138 289.540335h0.06204z m520.14274 0.217139c0 115.611402-97.774924 209.415771-218.38054 209.291691-120.605616-0.09306-218.22544-93.742328-218.22544-209.50883 0.1551-115.673442 97.774924-209.47781 218.38054-209.322711 120.605616 0.06204 218.28748 93.866408 218.13238 209.53985h0.09306z"  horiz-adv-x="1179" />

    
    <glyph glyph-name="CSS1" unicode="&#58895;" d="M354.40128 896c-87.04 0-157.44-70.55872-157.44-157.59872v-275.68128H78.72c-21.6576 0-39.36256-17.69984-39.36256-39.36256v-236.31872c0-21.6576 17.69984-39.35744 39.36256-39.35744h118.24128v-118.08256c0-87.04 70.4-157.59872 157.44-157.59872h472.63744c87.04 0 157.59872 70.55872 157.59872 157.59872V580.9664c0 41.74848-38.9888 81.93024-107.52 149.27872l-29.11744 29.12256L818.87744 788.48C751.5392 857.0112 711.39328 896 669.59872 896H354.4064z m0-78.72h287.20128c28.35456-7.0912 27.99616-42.1376 27.99616-76.8v-120.16128c0-21.6576 17.69984-39.35744 39.36256-39.35744h118.07744c39.38816 0 78.87872 0.0256 78.87872-39.36256v-512c0-43.32032-35.55328-78.87872-78.87872-78.87872H354.4064c-43.32544 0-78.72 35.5584-78.72 78.87872v118.08256h393.91744c21.66272 0 39.36256 17.69472 39.36256 39.35744V423.35744c0 21.66272-17.69984 39.36256-39.36256 39.36256H275.68128V738.40128c0 43.32032 35.39456 78.87872 78.72 78.87872zM246.55872 390.55872c17.92 0 33.28-3.2 46.08-9.6l-9.6-19.2c-12.16 6.4-24.32 9.6-36.48 9.6-16.64 0-30.39744-6.4-41.27744-19.2-10.24-12.16-15.36-29.44-15.36-51.84 0-23.04 4.79744-40.63744 14.39744-52.79744 9.6-11.52 23.68-17.28 42.24-17.28 10.24 0 23.36256 2.23744 39.36256 6.71744v-19.2c-11.52-4.48-25.92256-6.71744-43.20256-6.71744-23.68 0-42.24 7.35744-55.68 22.07744-13.44 15.36-20.15744 38.08256-20.15744 68.16256 0 28.16 7.04 49.92 21.12 65.28 14.72 16 34.23744 23.99744 58.55744 23.99744z m120.00256 0c17.28 0 32.64-3.2 46.08-9.6l-7.68-18.23744c-13.44 5.76-26.24 8.63744-38.4 8.63744-10.24 0-17.92-2.23744-23.04-6.71744s-7.68-10.56256-7.68-18.24256c0-8.96 1.92-15.67744 5.76-20.15744 4.48-3.84 15.03744-9.6 31.67744-17.28 17.28-7.04 28.48256-14.40256 33.60256-22.08256 5.76-7.04 8.63744-16 8.63744-26.88 0-14.72-5.12-26.55744-15.36-35.51744s-24.96-13.44-44.16-13.44c-18.56 0-33.28 2.56-44.16 7.68v21.12c15.36-6.4 30.08-9.6 44.16-9.6 12.8 0 22.08256 2.23744 27.84256 6.71744 6.4 4.48 9.6 11.52 9.6 21.12 0 7.68-2.24256 14.08-6.72256 19.2-3.2 3.2-15.03744 9.28256-35.51744 18.24256-13.44 6.4-23.04 13.44-28.8 21.12s-8.64256 17.59744-8.64256 29.75744c0 13.44 4.48 24.00256 13.44 31.68256 9.6 8.32 22.72256 12.47744 39.36256 12.47744z m127.67744 0c17.28 0 32.64-3.2 46.08-9.6l-7.68-18.23744c-13.44 5.76-26.24 8.63744-38.4 8.63744-10.24 0-17.92-2.23744-23.04-6.71744s-7.68-10.56256-7.68-18.24256c0-8.96 1.92-15.67744 5.76-20.15744 4.48-3.84 15.04256-9.6 31.68256-17.28 17.28-7.04 28.47744-14.40256 33.59744-22.08256 5.76-7.04 8.64256-16 8.64256-26.88 0-14.72-5.12-26.55744-15.36-35.51744s-24.96-13.44-44.16-13.44c-18.56 0-33.28 2.56-44.16 7.68v21.12c15.36-6.4 30.08-9.6 44.16-9.6 12.8 0 22.07744 2.23744 27.83744 6.71744 6.4 4.48 9.6 11.52 9.6 21.12 0 7.68-2.23744 14.08-6.71744 19.2-3.2 3.2-15.04256 9.28256-35.52256 18.24256-13.44 6.4-23.04 13.44-28.8 21.12s-8.63744 17.59744-8.63744 29.75744c0 13.44 4.48 24.00256 13.44 31.68256 9.6 8.32 22.71744 12.47744 39.35744 12.47744z"  horiz-adv-x="1024" />

    
    <glyph glyph-name="weixin1" unicode="&#60181;" d="M903.36 115.2a37.888 37.888 0 0 1 27.632-9.04 43.488 43.488 0 0 1 26.704 12.64A238.112 238.112 0 0 1 1024 277.856c0 133.696-121.6 252.944-277.184 272.816C709.072 695.216 552.512 800 373.872 800 167.6 800 0 657.264 0 482.912a277.648 277.648 0 0 1 81.04-194.224 37.28 37.28 0 0 1 28.544-11.744 37.504 37.504 0 0 1 27.632 63.232 206.4 206.4 0 0 0-60.8 142.736c0 133.696 132.608 242.096 296.512 242.096 131.68 0 253.232-72.272 291.92-172.544-162.064-15.36-288.224-134.608-288.224-274.624a238.736 238.736 0 0 1 2.768-36.128h-6.4a449.824 449.824 0 0 0-90.24 11.744c-6.4 0.896-12.896 2.704-19.344 3.616a34.128 34.128 0 0 1-24.864-3.616L121.6 195.648a37.264 37.264 0 0 1-17.6-50.592 37.952 37.952 0 0 1 34.064-20.8 60.448 60.448 0 0 1 17.504 3.616l104.976 51.488 6.4-0.896a483.792 483.792 0 0 1 105.904-13.552c9.216 0 19.344 0 30.4 0.896a283.536 283.536 0 0 1 69.072-86.72 353.6 353.6 0 0 1 227.456-78.592 399.808 399.808 0 0 1 94.848 14.4l78.272-42.464a42.56 42.56 0 0 1 18.416-4.512 39.248 39.248 0 0 1 34.08 19.872 37.328 37.328 0 0 1-15.648 51.488l-92.08 49.68a41.696 41.696 0 0 1-27.632 3.616 385.472 385.472 0 0 0-91.2-15.36c-133.52 0.896-244.032 90.336-244.032 201.456s110.496 200.544 246.784 200.544c133.52 0 245.872-92.144 245.872-200.544a165.632 165.632 0 0 0-47.888-110.208 37.76 37.76 0 0 1 3.792-53.264zM212.96 580.272a49.184 49.184 0 1 1 98.368 0 49.184 49.184 0 1 1-98.368 0zM446.208 580.272a49.184 49.184 0 1 1 98.368 0 49.184 49.184 0 1 1-98.368 0zM559.616 346.56a49.184 49.184 0 1 1 98.368 0 49.184 49.184 0 1 1-98.368 0zM748.608 346.56a49.184 49.184 0 1 1 98.368 0 49.184 49.184 0 1 1-98.368 0z"  horiz-adv-x="1024" />

    
    <glyph glyph-name="mian-zuobiao" unicode="&#59021;" d="M783.36 775.168c-72.704 72.704-168.96 112.64-271.36 112.64s-199.168-39.936-271.36-112.64c-72.704-72.704-112.64-168.96-112.64-271.36 0-90.624 32.256-178.176 90.112-247.296l261.632-359.424c7.168-10.24 19.456-16.384 31.744-16.384s24.576 6.144 31.744 16.384l261.632 359.424c58.368 69.12 90.624 156.672 90.624 247.296 0.512 102.4-39.424 198.656-112.128 271.36z m-271.36-379.392c-56.832 0-102.912 46.08-102.912 102.912s46.08 102.912 102.912 102.912 102.912-46.08 102.912-102.912-46.08-102.912-102.912-102.912z"  horiz-adv-x="1024" />

    
    <glyph glyph-name="weixin" unicode="&#59014;" d="M696.406016 532.926464c4.788224 0 9.490432-0.094208 14.19264-0.372736-24.788992 135.286784-164.593664 238.870528-333.238272 238.870528-186.249216 0-337.2032-126.255104-337.2032-282.001408 0-91.324416 51.884032-172.515328 132.34176-224.034816 1.011712-0.638976 3.13344-1.937408 3.13344-1.937408l-32.620544-102.014976 121.921536 62.111744s3.776512-1.10592 5.718016-1.654784c33.542144-9.310208 69.390336-14.37696 106.713088-14.37696 7.647232 0 15.11424 0.270336 22.67136 0.73728-6.914048 21.471232-10.69056 43.958272-10.69056 67.272704-0.008192 142.11072 137.490432 257.400832 307.060736 257.400832zM494.67392 632.36096c26.177536 0 47.366144-20.553728 47.366144-45.89568s-21.192704-45.89568-47.366144-45.89568-47.366144 20.553728-47.366144 45.89568c0 25.440256 21.192704 45.89568 47.366144 45.89568zM260.042752 540.667904c-26.17344 0-47.37024 20.549632-47.37024 45.89568 0 25.341952 21.1968 45.89568 47.37024 45.89568 26.169344 0 47.366144-20.553728 47.366144-45.89568 0-25.346048-21.1968-45.89568-47.366144-45.89568zM983.842816 273.784832c0 131.592192-127.54944 238.219264-284.766208 238.219264-157.401088 0-284.946432-106.627072-284.946432-238.219264 0-131.600384 127.545344-238.231552 284.946432-238.231552 31.522816 0 61.743104 4.23936 90.124288 12.169216 1.662976 0.462848 4.890624 1.384448 4.890624 1.384448l102.936576-52.527104-27.459584 86.257664s1.748992 1.10592 2.572288 1.654784c67.833856 43.49952 111.702016 112.058368 111.702016 189.292544z m-384.02048 43.216896c-22.1184 0-39.99744 17.32608-39.99744 38.801408 0 21.385216 17.874944 38.7072 39.99744 38.7072 22.110208 0 39.99744-17.321984 39.99744-38.7072 0.094208-21.38112-17.883136-38.801408-39.99744-38.801408z m198.230016 0c-22.114304 0-39.99744 17.32608-39.99744 38.801408 0 21.385216 17.87904 38.7072 39.99744 38.7072s39.99744-17.321984 39.99744-38.7072c0.090112-21.38112-17.87904-38.801408-39.99744-38.801408z"  horiz-adv-x="1024" />

    
    <glyph glyph-name="huaban88" unicode="&#59004;" d="M960 384a435.2 435.2 0 0 0-85.76-263.36 440 440 0 0 0-220.48-161.92 26.88 26.88 0 0 0-23.04 4.16 22.72 22.72 0 0 0-7.04 17.6v122.88a104.64 104.64 0 0 1-30.4 82.88 416 416 0 0 1 59.52 10.24 218.24 218.24 0 0 1 54.72 23.04 164.8 164.8 0 0 1 47.04 38.4 184 184 0 0 1 32 61.44 293.76 293.76 0 0 1 12.16 88 168.64 168.64 0 0 1-46.4 120 154.88 154.88 0 0 1-4.48 119.04 76.48 76.48 0 0 1-47.04-6.4 300.48 300.48 0 0 1-53.76-25.6l-22.08-13.76a416 416 0 0 1-224 0c-6.4 4.48-14.4 9.28-24.64 15.68A326.08 326.08 0 0 1 326.4 640a82.88 82.88 0 0 1-50.24 8 156.8 156.8 0 0 1-4.16-120 173.76 173.76 0 0 1-46.08-120.64A288 288 0 0 1 238.08 320a196.48 196.48 0 0 1 32-61.44 152 152 0 0 1 47.04-39.04 267.84 267.84 0 0 1 54.72-23.04 414.08 414.08 0 0 1 59.84-10.24 92.48 92.48 0 0 1-28.8-60.16 99.2 99.2 0 0 0-26.56-8.32 167.36 167.36 0 0 0-32-2.88A69.12 69.12 0 0 0 303.36 128a109.44 109.44 0 0 0-32 36.48 96 96 0 0 1-28.16 30.4 80.64 80.64 0 0 1-28.8 14.08h-11.52a41.6 41.6 0 0 1-16.96-2.56q-4.8-2.88-2.88-6.72a44.16 44.16 0 0 1 5.44-8 55.36 55.36 0 0 1 7.68-7.36l4.16-2.56a78.08 78.08 0 0 0 25.6-22.08 157.76 157.76 0 0 0 18.24-29.44l5.76-13.44a72.32 72.32 0 0 1 25.6-36.16 96 96 0 0 1 38.72-16.64 196.16 196.16 0 0 1 40.32-4.16 182.08 182.08 0 0 1 32 2.24l13.44 2.24v-83.84a23.04 23.04 0 0 0-7.68-17.6 27.84 27.84 0 0 0-23.36-4.16 438.08 438.08 0 0 0-219.2 162.88A427.84 427.84 0 0 0 64 384a437.44 437.44 0 0 0 60.16 224A443.52 443.52 0 0 0 288 771.84 437.44 437.44 0 0 0 512 832a437.44 437.44 0 0 0 224-60.16A443.52 443.52 0 0 0 899.84 608 436.8 436.8 0 0 0 960 384z"  horiz-adv-x="1024" />

    
    <glyph glyph-name="HTML" unicode="&#59092;" d="M912.64 688.448v-743.808a51.84 51.84 0 0 0-51.904-51.84H197.056a51.84 51.84 0 0 0-51.84 51.84V844.16c0 28.8 23.104 51.904 51.84 51.904h507.968l207.552-207.552zM128 117.632v-172.992c0-38.336 30.848-69.12 69.184-69.12h663.68c38.336 0 69.12 30.784 69.12 69.12v172.992H128zM912.64 688.448h-155.712a51.84 51.84 0 0 0-51.84 51.84V896M451.968 527.616L347.136 424.064a17.28 17.28 0 0 1 1.28-26.176L451.968 295.68a17.28 17.28 0 1 1 24.32 24.576L383.808 411.648 476.288 503.04a17.28 17.28 0 1 1-24.32 24.64z m166.464-5.696a17.28 17.28 0 0 1 4.096-18.88l92.416-91.328-92.416-91.456a17.28 17.28 0 1 1 24.32-24.576l103.424 102.208a17.28 17.28 0 0 1 1.408 26.24l-0.768 0.64a17.28 17.28 0 0 1-0.512 0.512l-103.552 102.4a17.28 17.28 0 0 1-28.416-5.76zM663.872 76.288l-37.888-50.752-38.016 50.752a17.92 17.92 0 0 1-14.208 6.784 17.28 17.28 0 0 1-17.024-17.472v-138.048a17.28 17.28 0 1 1 34.56 0v86.656l17.28-23.04a17.28 17.28 0 0 1 31.168-4.736l20.736 27.648v-86.528a17.28 17.28 0 0 1 34.56 0V64.64a17.28 17.28 0 0 1-31.168 11.648z m-418.432-10.688v-138.048a17.28 17.28 0 0 1 34.56 0v51.712h69.248v-51.712a17.28 17.28 0 1 1 34.56 0v66.304a17.28 17.28 0 0 1 0 5.504v66.24a17.28 17.28 0 1 1-34.56 0v-51.776H280v51.776a17.28 17.28 0 1 1-34.56 0z m222.848 17.408h-32.64a17.28 17.28 0 1 1 0-34.56h17.344v-120.896a17.28 17.28 0 0 1 34.56 0v120.896h17.344a17.28 17.28 0 1 1 0 34.56h-32.768a17.28 17.28 0 0 1-3.84 0z m261.376-17.408v-136.768a17.28 17.28 0 0 1 2.944-11.072 17.28 17.28 0 0 1 1.024-1.344 17.28 17.28 0 0 1 2.176-2.176 17.28 17.28 0 0 1 4.736-2.88 17.28 17.28 0 0 1 6.72-1.28h68.736a17.28 17.28 0 0 1 0 34.56h-51.712v120.96a17.28 17.28 0 1 1-34.56 0z"  horiz-adv-x="1024" />

    
    <glyph glyph-name="huaban881" unicode="&#58896;" d="M960 384a435.2 435.2 0 0 0-85.76-263.36 440 440 0 0 0-220.48-161.92 26.88 26.88 0 0 0-23.04 4.16 22.72 22.72 0 0 0-7.04 17.6v122.88a104.64 104.64 0 0 1-30.4 82.88 416 416 0 0 1 59.52 10.24 218.24 218.24 0 0 1 54.72 23.04 164.8 164.8 0 0 1 47.04 38.4 184 184 0 0 1 32 61.44 293.76 293.76 0 0 1 12.16 88 168.64 168.64 0 0 1-46.4 120 154.88 154.88 0 0 1-4.48 119.04 76.48 76.48 0 0 1-47.04-6.4 300.48 300.48 0 0 1-53.76-25.6l-22.08-13.76a416 416 0 0 1-224 0c-6.4 4.48-14.4 9.28-24.64 15.68A326.08 326.08 0 0 1 326.4 640a82.88 82.88 0 0 1-50.24 8 156.8 156.8 0 0 1-4.16-120 173.76 173.76 0 0 1-46.08-120.64A288 288 0 0 1 238.08 320a196.48 196.48 0 0 1 32-61.44 152 152 0 0 1 47.04-39.04 267.84 267.84 0 0 1 54.72-23.04 414.08 414.08 0 0 1 59.84-10.24 92.48 92.48 0 0 1-28.8-60.16 99.2 99.2 0 0 0-26.56-8.32 167.36 167.36 0 0 0-32-2.88A69.12 69.12 0 0 0 303.36 128a109.44 109.44 0 0 0-32 36.48 96 96 0 0 1-28.16 30.4 80.64 80.64 0 0 1-28.8 14.08h-11.52a41.6 41.6 0 0 1-16.96-2.56q-4.8-2.88-2.88-6.72a44.16 44.16 0 0 1 5.44-8 55.36 55.36 0 0 1 7.68-7.36l4.16-2.56a78.08 78.08 0 0 0 25.6-22.08 157.76 157.76 0 0 0 18.24-29.44l5.76-13.44a72.32 72.32 0 0 1 25.6-36.16 96 96 0 0 1 38.72-16.64 196.16 196.16 0 0 1 40.32-4.16 182.08 182.08 0 0 1 32 2.24l13.44 2.24v-83.84a23.04 23.04 0 0 0-7.68-17.6 27.84 27.84 0 0 0-23.36-4.16 438.08 438.08 0 0 0-219.2 162.88A427.84 427.84 0 0 0 64 384a437.44 437.44 0 0 0 60.16 224A443.52 443.52 0 0 0 288 771.84 437.44 437.44 0 0 0 512 832a437.44 437.44 0 0 0 224-60.16A443.52 443.52 0 0 0 899.84 608 436.8 436.8 0 0 0 960 384z"  horiz-adv-x="1024" />

    
    <glyph glyph-name="qq" unicode="&#58897;" d="M191.62833506 429.6211125l-1.7145123 5.22785567-1.39128399 6.80183349-0.92752295 3.72414463v15.32520527l1.65829834 6.03592471 1.68640576 6.38023271 2.22745958 6.69643331 3.00742206 7.44828925 3.94197188 7.75043614 5.57919052 7.75746386v5.43162921l0.54105469 5.08732206 0.86428301 6.91426055 2.38907373 7.7715167 2.19935303 8.38986504 1.75667168 3.85062539 2.03071289 3.59063701 2.60690097 3.99818496 2.8458088 2.97228955v19.18285752l1.64424463 9.88654922 1.65829833 11.47458076 2.95120899 13.73717461 4.05439893 14.29930986 3.02147578 7.85583633 2.99336923 8.5514792 3.28848926 7.97529112 3.92791904 8.54445146 4.00521182 9.35954824 4.60248047 8.76227959 5.17866855 9.35252139 6.52779317 9.34549453 3.02147578 5.35433643 3.21119648 4.38465322 6.9915542 9.87952236 7.20235459 9.85844356 8.1720378 10.14653672 8.75525273 9.87249638 9.50008183 9.72493594 9.90762979 9.99897627 12.00158261 10.79299248 7.60990255 6.56292656 9.28928144 7.08290068 9.41576133 6.25375195 10.17464414 6.00781817 9.78114903 5.34028272 11.03189941 4.42681348 11.71348858 5.4456829 11.64322177 3.73819747 11.61511524 3.87873193 12.55669013 3.85062451 12.54263818 2.93012929 13.18206622 2.43826085L477.47399082 829.19370908l13.20314678 1.72153829 13.18206621 1.77072539 14.0674289 0.74482909h41.54177725l13.84257481-1.70748544 13.91986846-1.62316495 14.18688281-1.45452392 13.1680125-3.09876944 13.90581474-2.90202187 13.04855948-3.33767636 14.29930985-3.72414464 13.083692-4.53924052 12.52155761-5.18569541 13.37881377-5.48081631 12.1983293-5.99376445 11.86807588-6.67535362 11.62916807-7.33586221 10.01302998-6.82291406 4.65166758-3.85062451 4.86949394-2.81770136 9.2963083-7.72935645 7.83475664-7.47639581 7.81367695-7.72935644 7.60990255-8.53039951 6.28185849-8.27743799 7.47639581-8.55147919 5.19974911-9.17685352 5.28406964-8.16501094 5.60729618-9.50008184 4.64464072-8.2563583 7.82070381-17.48942578 3.83657169-9.03632079 3.00742206-8.37581133 3.00742208-9.0925339 2.69824833-8.55147919 1.87612559-7.3569419 2.43826084-8.64985253 4.26519932-15.44466006 2.72635488-13.51934649 1.77775137-13.07666601 1.5247916-10.51895127 2.40312744-16.02084815 0.54105469-2.54366104 1.92531269-2.88094218 5.17866856-8.2914917 3.32362354-5.6213499 2.95120898-5.84620401 3.75225117-6.26780566 3.31659668-7.51855606 2.15719278-7.68016933 2.34691347-8.4320253 1.77072539-8.65687939 0.80806904-4.25114561 0.7448291-5.24190937v-4.55329336l-0.7448291-4.51816084v-5.6213499l-1.34912373-5.43865606-2.45934052-10.54003183-2.83175508-5.34028271-2.10097969-5.9867376v-1.49668506l0.99778974-1.85504502 2.81067451-4.37762637 12.26859698-17.77751982 9.67574883-13.35070723 4.63761387-8.90281319 6.24672597-9.76006933 5.43865606-10.68056543 6.27483164-11.43242051 6.28185937-12.84478505 7.06884785-14.5382168 3.98413125-8.90984004 3.639825-8.70606651 3.14092881-9.18388037 3.09174258-8.2563583 2.36096718-8.67795908 2.40312745-8.15095811 3.03552861-15.88734052 2.4101543-16.23164941 1.65127148-14.40470919v-20.314154l-1.11021679-7.20235547-1.58803154-12.4231834-2.16421963-11.17243388-3.37280977-10.11843018-1.26480411-4.13169258-2.36096718-4.96786817-1.96747207-3.46415712-2.6350084-4.26519932-2.31880693-2.69122148-2.95120899-3.47118398-2.63500752-2.81067451-2.81770136-2.38907374-3.37281065-1.4545248-3.03552862-1.45452393-2.4944748-0.80104307h-3.81549111l-2.43123399 0.80104307-4.63761386 2.24854013-2.12205937 1.48965734-2.22746046 1.56695185-2.43826084 2.13611308-2.45934052 2.40312656-4.06845176 4.42681348-4.80625488 6.25375196-3.78738458 6.44347265-3.78035771 5.15758887-3.69603808 6.00781816-5.2067751 10.65948487-5.85323086 11.09514023-0.68861602 0.38646738h-0.96968232l-2.3750209-1.73559111-1.37723027-2.91607558-2.29070039-3.6257713-3.98413213-10.77191191-6.01484502-15.33223301-7.70124902-18.45208125-5.78999093-9.1909081-6.0710581-9.59845518-7.2164083-10.79299248-7.65908965-10.56111152-3.91386533-4.77814746-4.75004092-5.22082881-10.92649922-10.51895215 0.95562949-0.94860264 1.4756045-1.50371103 5.45973662-3.13390283 22.73133427-10.70867197 9.90762979-5.47378946 9.46494844-5.31217617 9.35954824-6.6964333 8.34067793-6.90020772 4.03331924-3.11282226 3.03552862-3.59063789 3.12687597-4.1668251 2.57879443-4.51816084 1.39128398-3.74522432 1.7004586-4.49708027 0.73780225-3.89278476 0.80806904-4.54626739-0.80806904-3.04255547v-3.09174258l-0.73780225-3.19011591-1.7004586-2.91607559-0.64645488-2.28367353-1.54587129-2.76851514-4.12466571-5.50892285-3.81549112-4.4057338-2.95120898-3.30254296-2.45934053-2.44528681-6.27483252-4.48302745-7.0969544-3.90683848-7.56774316-3.73819745-8.11582383-3.5906379-9.04334678-3.47820996-4.86949482-1.4545248-4.27222617-1.17345674-10.51192529-2.40312656-10.85623243-2.28367354-10.90541953-2.2696207-11.868075-1.89720527-12.22643672-0.5059213-12.54263731-1.47560448h-38.92082343l-14.03932236 0.80104218-13.06963916 1.1804836-14.0885086 1.89720527-13.9831084 1.46857764-14.72091064 2.0096332-14.26417647 3.47820996-13.91986845 2.62798154-13.82852109 3.87873194-14.18688282 4.96786816-13.9128416 4.11061201-7.33586221 2.40312744-6.51373945 2.26961982-4.11763887 1.56695187-4.08953232 0.84320243h-11.5729541l-13.37881378 0.92049609-6.75967323 0.67456143-8.71309336 0.94860352-5.58621651-4.95381534-7.62395625-4.67274726-10.33625742-4.9257079-11.43944737-6.14835177-6.95642079-3.33767724-7.25856856-2.64203438-16.027875-6.42239208-8.71309248-2.14313995-9.13469414-2.41015429-12.66911807-2.41718028-7.94015683-0.60429551-8.38283906-0.70266796-8.75525274-0.94860352-10.18869697-0.37241455h-41.64015146l-23.51129679 0.37241455-22.83673534 2.25556699-11.55187442 1.61613809-11.16540703 1.61613808-10.86325928 1.5950584-10.87028613 2.14313995-10.13248301 3.20416962-10.0762708 2.28367354-9.09253389 3.58361015-8.59363857 3.33065039-8.02447734 3.74522432-6.95642081 4.09655918-6.91426142 4.98894785-2.36096631 2.4101543-3.09174258 2.91607558-2.34691435 2.54366104-2.10800567 2.93012841-1.95341923 2.91607559-1.51073789 2.95120899-2.1853002 6.25375195-0.76590879 3.23227617-0.9696832 3.58361104v3.32362266l0.9696832 3.74522519v3.72414375l0.76590879 3.72414463v7.5115292l0.3653877 3.96305244 1.8199125 4.54626651 1.51073789 4.53924052 2.74040771 5.47378945 2.0096332 2.10800655 1.65829834 2.44528681 4.3214124 5.18569629 3.44307744 2.67014092 3.26038272 1.86909873 3.00742207 2.3750209 4.75004092 1.47560449 3.81549199 2.27664668 4.75004092 2.39610059 5.41054951 1.59505752 5.44568291 1.62316493 6.30293906 1.34912461 5.97268389 0.77293565 7.08290156 0.91346924 7.68016934 0.56916123 1.99557949 0.64645576h0.44268135l0.96265635 0.80806905v0.91346923l-1.4053377 1.86909874-4.07547861 1.89720615-10.18869697 8.64985253-6.8510206 5.34730958-7.91907716 6.79480664-7.98231708 7.60287568-8.29851856 9.7108831-9.55629493 10.94757891-3.56955732 5.92349765-4.72193437 6.11321836-4.07547862 7.07587471-3.66793154 7.72935645-4.9467876 7.35694189-3.22525019 8.38986504-3.84359766 8.37581221-3.83657168 9.34549453-2.78959482 8.94497344-2.65608808 11.06703369-0.78698937 0.40052109h-0.80806904l-0.4145748 0.79401533h-0.98373603l-1.6161381-0.79401533-0.80104218-0.40052109-1.1102168-1.8550459-0.40052109-2.25556699-0.83617647-2.00963233-1.44749706-3.35173007-4.6657213-8.12987754-2.42420713-4.92570879-3.83657079-4.30033271-4.0754795-5.1716417-4.50410625-5.73377784-4.75706777-5.08732119-5.5862165-4.92570878-5.15758887-4.62356016-5.71972412-3.68198438-6.25375196-3.83657168-6.00781816-2.28367354-7.08290157-1.73559198-6.95642079-0.66753458h-1.63721778l-1.60208526 0.66753458-1.26480321 2.69824833-2.03773975 1.32101719-2.67014092 6.40833926-1.66532519 3.46415712-1.79180508 4.96786817-1.47560449 5.15758887-0.79401621 5.08732207-2.19935304 11.57998096-0.84320243 6.82994092v22.38000029l0.84320243 16.71649013 1.37723116 8.53039864 1.61613809 8.79741299 1.47560449 9.46494844 2.62798066 8.81146669 2.95120899 10.13950987 3.02850263 9.88655009 4.06142491 10.17464327 3.82954482 9.69682939 5.29812246 9.83736299 4.91165508 10.68056543 6.00781816 10.01302998 7.06884785 10.80704531 7.18830176 9.71088222 7.5115292 10.8070462 6.26077881 7.52558203 8.02447734 8.62174599 8.44607813 8.6920128 3.93494502 4.14574541 4.76409463 4.65166757 6.9212874 5.87431143 7.1110081 5.99376445 11.57295411 10.16059044 8.72714619 6.24672509z"  horiz-adv-x="1025" />

    
    <glyph glyph-name="weixin2" unicode="&#59175;" d="M512 384m-476.689655 0a476.689655 476.689655 0 1 1 953.37931 0 476.689655 476.689655 0 1 1-953.37931 0ZM512 896C229.517241 896 0 666.482759 0 384S229.517241-128 512-128 1024 101.517241 1024 384 794.482759 896 512 896z m-91.806897-632.055172c-24.717241 0-52.965517 3.531034-77.682758 10.593103l-77.682759-38.841379 21.186207 67.089655c-52.965517 31.77931-84.744828 88.275862-88.275862 148.303448 0 105.931034 98.868966 187.144828 222.455172 187.144828 109.462069 0 204.8-67.089655 222.455173-155.365517h-21.186207c-98.868966 3.531034-183.613793-74.151724-187.144828-173.02069 0-14.124138 3.531034-31.77931 7.062069-45.903448h-21.186207z m324.855173-77.682759l17.655172-56.496552-60.027586 31.779311c-24.717241-3.531034-45.903448-7.062069-67.089655-7.062069-105.931034 0-187.144828 70.62069-187.144828 158.896551S529.655172 472.275862 635.586207 472.275862c98.868966 0 187.144828-70.62069 187.144827-158.896552-3.531034-52.965517-35.310345-98.868966-77.682758-127.117241zM501.406897 491.308138c14.124138 0 28.248276 14.124138 28.248275 28.248276s-14.124138 28.248276-28.248275 28.248276c-14.124138 3.531034-28.248276-7.062069-31.779311-21.186207s7.062069-28.248276 21.186207-31.779311c3.531034-3.531034 7.062069-3.531034 10.593104-3.531034z m-155.365518 56.496552c-14.124138 3.531034-31.77931-7.062069-35.310345-21.186207-3.531034-14.124138 7.062069-31.77931 21.186207-35.310345h10.593104c14.124138 0 28.248276 14.124138 28.248276 28.248276 3.531034 14.124138-7.062069 28.248276-24.717242 28.248276z m225.986207-162.427587c-10.593103 0-21.186207-10.593103-21.186207-21.186206s10.593103-21.186207 21.186207-21.186207c10.593103-3.531034 24.717241 3.531034 28.248276 17.655172 3.531034 10.593103-3.531034 24.717241-17.655172 28.248276-3.531034-3.531034-7.062069-3.531034-10.593104-3.531035z m123.586207 0c-10.593103 0-21.186207-10.593103-21.186207-21.186206s10.593103-21.186207 21.186207-21.186207c10.593103-3.531034 24.717241 3.531034 28.248276 17.655172 3.531034 10.593103-3.531034 24.717241-17.655172 28.248276-3.531034-3.531034-7.062069-3.531034-10.593104-3.531035z"  horiz-adv-x="1024" />

    
    <glyph glyph-name="QQ1" unicode="&#59071;" d="M693.589386-126.377179a286.157422 286.157422 0 0 0-125.498151 30.292657 129.825674 129.825674 0 0 1-54.094031 16.228209 111.433703 111.433703 0 0 1-54.09403-15.146328 266.142631 266.142631 0 0 0-125.498151-30.833598A359.184363 359.184363 0 0 0 215.939096-103.657686a142.267301 142.267301 0 0 0-30.292658 14.605388 98.451136 98.451136 0 0 0-54.09403 82.763867 96.287375 96.287375 0 0 0 54.09403 82.222927c4.327522 3.245642 9.736926 5.950343 14.064448 8.655044a115.220285 115.220285 0 0 1-8.655044 13.523508c-2.704702 4.868463-6.491284 10.277866-9.736926 15.146329l-21.096672-17.85103-24.883254-21.096672-25.424194 20.014791A134.694136 134.694136 0 0 0 53.657004 221.447438a331.596408 331.596408 0 0 0 81.141046 208.262018 76.813524 76.813524 0 0 1 16.769149 44.898045 1159.235077 1159.235077 0 0 0 36.243001 176.34654 339.710512 339.710512 0 0 0 324.564184 245.045959h18.39197a342.415214 342.415214 0 0 0 314.827258-270.470153c5.409403-27.047015 10.277866-54.094031 15.146329-81.141046 5.409403-28.669836 10.277866-58.421553 16.228209-87.091389a108.188061 108.188061 0 0 1 17.85103-26.506075v-4.327523a338.628632 338.628632 0 0 0 71.404121-223.949287 227.194929 227.194929 0 0 0-10.277866-54.09403v-4.327523a137.939778 137.939778 0 0 0-35.16112-54.094031l-15.146329-16.228209-20.555731 10.818806-35.16112 29.751717v-4.868462c-5.409403-7.573164-10.277866-15.146329-15.146329-22.719493a115.220285 115.220285 0 0 0 11.900687-9.736926h2.704701a144.972002 144.972002 0 0 0 47.602747-70.86318c5.409403-29.210777 0-70.32224-65.994717-98.451136a315.368199 315.368199 0 0 0-133.071315-30.833597z m-182.296883 98.992076a171.478077 171.478077 0 0 0 79.518225-21.637612 222.326466 222.326466 0 0 1 102.237718-24.342314 270.470153 270.470153 0 0 1 108.188061 25.424194c40.570523 17.85103 37.324881 33.538299 36.243001 41.111464a108.188061 108.188061 0 0 1-32.456419 42.734284v2.704701a54.094031 54.094031 0 0 1-15.687269 10.277866l-8.655045 4.327523-23.801373 13.523507 21.637612 32.456419 24.883254 38.406761 19.473851 29.751717 16.22821 24.883254 38.947702-32.997358 23.260433-20.014792a63.290016 63.290016 0 0 1 8.114104 14.605389v3.245641a230.440571 230.440571 0 0 1 8.655045 42.734285 291.566825 291.566825 0 0 1-60.585314 190.410988l-2.704702 2.704701a141.72636 141.72636 0 0 0-27.047015 48.143687c-6.491284 29.751717-11.359746 60.044374-16.769149 89.796091-4.327522 25.965135-9.195985 54.094031-14.064448 78.436345A289.403064 289.403064 0 0 1 528.061652 841.905969h-15.687268A288.321183 288.321183 0 0 1 237.576708 636.889593a1117.041733 1117.041733 0 0 1-34.079239-168.232435 131.989435 131.989435 0 0 0-29.751717-74.108822A280.207079 280.207079 0 0 1 107.751034 218.201796a86.009509 86.009509 0 0 1 20.555732-79.518225 81.681986 81.681986 0 0 1 12.441627 11.359746l17.31009 14.064448 31.374538 28.669837 21.637612-34.07924 20.555732-32.456418 18.93291-29.751717 20.555732-32.456418-34.62018-17.31009a185.542525 185.542525 0 0 1-26.506075-15.146329c-18.39197-11.900687-28.128896-25.424194-27.587955-37.865821 0-12.982567 10.818806-27.047015 30.292657-38.406762a76.272583 76.272583 0 0 1 20.014791-9.736925 285.075541 285.075541 0 0 1 101.696778-18.932911 213.130481 213.130481 0 0 1 101.155837 24.342314 159.03645 159.03645 0 0 0 75.731643 21.096672z"  horiz-adv-x="1024" />

    
    <glyph glyph-name="weixin3" unicode="&#58921;" d="M496.128 855.04c225.2288 0 417.4848-151.8592 450.3552-358.0416a51.0976 51.0976 0 0 0-11.4688-41.1648c124.1088-36.1984 214.784-140.6464 214.784-265.0112 0-69.1712-28.3648-134.912-79.4624-185.9584l5.2736 5.5808 18.0736-59.8016c11.7248-38.912-23.8592-73.5744-60.672-64.6656l-5.2224 1.536-5.2736 2.2016-80.0256 38.4-8.1408-2.56a342.3232 342.3232 0 0 0-79.616-13.2096l-16.384-0.4096c-108.544 0-204.9536 50.1248-260.7616 126.464a50.688 50.688 0 0 0-37.0176-21.2992 500.1216 500.1216 0 0 0-146.4832 8.704l-15.9232 3.7888-130.816-85.2992c-68.1472-44.3904-151.04 13.824-143.36 91.136l1.024 7.3216 24.3712 143.5136-5.0176 6.2464A397.6192 397.6192 0 0 0 41.3184 418.7136L40.96 435.0976C40.96 668.8768 246.016 855.04 496.128 855.04z m342.272-487.7824c-116.9408 0-209.0496-81.2032-209.0496-176.4352s92.0576-176.4864 209.0496-176.4864c26.9312 0 53.248 4.4032 78.0288 12.9024l12.8 4.4032a51.2 51.2 0 0 0 38.7072-2.2016l-0.9728 0.3584 0.6144 4.5568a51.2 51.2 0 0 0 9.984 22.016l4.096 4.6592 16.2816 16.2816c32.256 32.2048 49.4592 72.0384 49.4592 113.5104 0 95.232-92.0576 176.4352-208.9984 176.4352zM496.128 752.64C300.544 752.64 143.36 609.9456 143.36 435.1488c0-73.3184 27.648-143.2576 78.5408-199.8336a51.2 51.2 0 0 0 13.1072-36.1984l-0.6656-6.656-25.7536-151.1424 132.8128 86.528a51.2 51.2 0 0 0 36.5568 7.5776l6.2464-1.4336a385.6896 385.6896 0 0 1 147.2512-14.848l5.8368 0.1024a251.9552 251.9552 0 0 0-10.3424 71.5776c0 154.8288 140.5952 278.8352 311.4496 278.8352l10.1376-0.1536a51.3536 51.3536 0 0 0-3.1744 11.3664C820.6848 635.648 672.5632 752.64 496.128 752.64z m440.832-486.4a51.2 51.2 0 0 0 5.9904-102.0416l-5.9904-0.3584h-25.6a51.2 51.2 0 0 0-5.9904 102.0416l5.9904 0.3584h25.6z m-204.8 0a51.2 51.2 0 0 0 5.9904-102.0416l-5.9904-0.3584h-25.6a51.2 51.2 0 0 0-5.9904 102.0416l5.9904 0.3584h25.6z m-25.6 358.4a51.2 51.2 0 0 0 5.9904-102.0416L706.56 522.24h-51.2a51.2 51.2 0 0 0-5.9904 102.0416L655.36 624.64h51.2z m-256 0a51.2 51.2 0 0 0 5.9904-102.0416L450.56 522.24h-51.2a51.2 51.2 0 0 0-5.9904 102.0416L399.36 624.64h51.2z"  horiz-adv-x="1177" />

    
    <glyph glyph-name="Vue-copy" unicode="&#58898;" d="M615.6 772.4h165.5L512 306.29999999999995 242.9 772.4H63.5L512-4.399999999999977l448.5 776.9zM781.1 772.4H615.6L512 593 408.4 772.4H242.9L512 306.29999999999995z"  horiz-adv-x="1024" />

    
    <glyph glyph-name="css1" unicode="&#58899;" d="M88.064 868.352l77.824-871.424L512-100.35199999999998l346.112 97.28 77.824 871.424zM771.072 583.6800000000001l-10.24-109.568-29.696-328.704L512 84.99199999999996l-220.16 60.416-14.336 172.032h107.52l7.168-89.088L512 195.58399999999995l119.808 32.768 16.384 148.48-375.808-1.024-11.264 101.376 395.264 4.096 8.192 108.544-413.696-1.024-7.168 101.376h536.576z"  horiz-adv-x="1024" />

    
    <glyph glyph-name="vue1" unicode="&#58903;" d="M76.416 731.690667L512-20.096000000000004 947.584 728.064v3.626667H778.24L514.56 278.74133300000005 251.989333 731.648zM252.032 731.690667l262.485333-452.992L778.24 731.690667h-158.848L515.584 553.386667 412.16 731.733333z"  horiz-adv-x="1024" />

    
    <glyph glyph-name="js" unicode="&#59128;" d="M85.333333 896h853.333334c46.933333 0 85.333333-38.4 85.333333-85.333333v-853.333334c0-46.933333-38.4-85.333333-85.333333-85.333333H85.333333c-46.933333 0-85.333333 38.4-85.333333 85.333333V810.666667c0 46.933333 38.4 85.333333 85.333333 85.333333zM185.6 742.4l59.733333-652.8 264.533334-72.533333 268.8 72.533333 59.733333 652.8H185.6z m569.6-633.6L509.866667 42.666667l-241.066667 66.133333L213.333333 716.8h595.2l-53.333333-608zM413.866667 354.133333c0-57.6-17.066667-72.533333-44.8-72.533333-12.8 0-25.6 2.133333-34.133334 6.4l-8.533333-68.266667c12.8-6.4 34.133333-8.533333 49.066667-8.533333 64 0 108.8 36.266667 108.8 142.933333V584.533333h-72.533334v-230.4zM625.066667 433.066667c-38.4 19.2-53.333333 27.733333-53.333334 51.2 0 19.2 12.8 34.133333 42.666667 34.133333 27.733333 0 46.933333-10.666667 57.6-19.2l17.066667 68.266667c-17.066667 8.533333-40.533333 17.066667-74.666667 17.066666-68.266667 0-110.933333-46.933333-110.933333-108.8 0-53.333333 34.133333-85.333333 81.066666-106.666666 34.133333-14.933333 49.066667-27.733333 49.066667-51.2 0-23.466667-14.933333-40.533333-46.933333-40.533334-27.733333 0-53.333333 10.666667-70.4 23.466667l-12.8-66.133333c17.066667-10.666667 46.933333-23.466667 78.933333-23.466667 78.933333 0 117.333333 51.2 117.333333 110.933333 0 53.333333-23.466667 87.466667-74.666666 110.933334z"  horiz-adv-x="1024" />

    
    <glyph glyph-name="vue2" unicode="&#61973;" d="M605.090909-128L23.272727 891.345455h451.490909l27.927273-46.545455 107.054546-186.181818 107.054545 186.181818 23.272727 46.545455h456.145455L605.090909-128z m181.527273 958.836364L605.090909 542.254545 423.563636 830.836364H321.163636l283.927273-512 283.927273 512h-102.4z m167.563636 0L605.090909 211.781818 256 830.836364H139.636364l465.454545-828.509091L1070.545455 830.836364h-116.363637z"  horiz-adv-x="1210" />

    
    <glyph glyph-name="github" unicode="&#58904;" d="M932 384a408 408 0 0 0-80.4-246.9 412.5 412.5 0 0 0-206.7-151.8 25.2 25.2 0 0 0-21.6 3.9 21.3 21.3 0 0 0-6.6 16.5v115.2a98.1 98.1 0 0 1-28.5 77.7 390 390 0 0 1 55.8 9.6 204.6 204.6 0 0 1 51.3 21.6 154.5 154.5 0 0 1 44.1 36 172.5 172.5 0 0 1 30 57.6 275.4 275.4 0 0 1 11.4 82.5 158.1 158.1 0 0 1-43.5 112.5 145.2 145.2 0 0 1-4.2 111.6 71.7 71.7 0 0 1-44.1-6 281.7 281.7 0 0 1-50.4-24l-20.7-12.9a390 390 0 0 1-210 0c-6 4.2-13.5 8.7-23.1 14.7A305.7 305.7 0 0 1 338 624a77.7 77.7 0 0 1-47.1 7.5 147 147 0 0 1-3.9-112.5 162.9 162.9 0 0 1-43.2-113.1A270 270 0 0 1 255.2 324a184.2 184.2 0 0 1 30-57.6 142.5 142.5 0 0 1 44.1-36.6 251.1 251.1 0 0 1 51.3-21.6 388.2 388.2 0 0 1 56.1-9.6 86.7 86.7 0 0 1-27-56.4 93 93 0 0 0-24.9-7.8 156.9 156.9 0 0 0-30-2.7A64.8 64.8 0 0 0 316.4 144a102.6 102.6 0 0 0-30 34.2 90 90 0 0 1-26.4 28.5 75.6 75.6 0 0 1-27 13.2h-10.8a39 39 0 0 1-15.9-2.4q-4.5-2.7-2.7-6.3a41.4 41.4 0 0 1 5.1-7.5 51.9 51.9 0 0 1 7.2-6.9l3.9-2.4a73.2 73.2 0 0 0 24-20.7 147.9 147.9 0 0 0 17.1-27.6l5.4-12.6a67.8 67.8 0 0 1 24-33.9 90 90 0 0 1 36.3-15.6 183.9 183.9 0 0 1 37.8-3.9 170.7 170.7 0 0 1 30 2.1l12.6 2.1v-78.6a21.6 21.6 0 0 0-7.2-16.5 26.1 26.1 0 0 0-21.9-3.9 410.7 410.7 0 0 0-205.5 152.7A401.1 401.1 0 0 0 92 384a410.1 410.1 0 0 0 56.4 210A415.8 415.8 0 0 0 302 747.6 410.1 410.1 0 0 0 512 804a410.1 410.1 0 0 0 210-56.4A415.8 415.8 0 0 0 875.6 594 409.5 409.5 0 0 0 932 384z"  horiz-adv-x="1024" />

    
    <glyph glyph-name="qq1" unicode="&#58905;" d="M738.773333 258.858667s-16.128-44.202667-45.909333-83.882667c0 0 53.162667-18.005333 48.682667-64.981333 0 0 1.706667-52.394667-113.450667-48.725334 0 0-81.066667 6.314667-105.344 40.661334h-21.376c-24.32-34.346667-105.386667-40.661333-105.386667-40.661334-115.285333-3.584-113.408 48.725333-113.408 48.725334-4.48 46.976 48.64 64.981333 48.64 64.981333-29.781333 39.68-45.909333 83.882667-45.909333 83.882667-72.106667-116.48-64.810667 16.213333-64.810667 16.213333 13.653333 78.506667 70.272 129.962667 70.272 129.962667-8.106667 71.296 21.674667 83.925333 21.674667 83.925333 6.314667 220.629333 195.754667 216.746667 199.765333 216.661333 4.010667 0.085333 193.621333 3.968 199.808-216.661333 0 0 29.781333-12.629333 21.632-83.925333 0 0 56.661333-51.456 70.314667-129.834667-0.426667-0.128 6.698667-132.778667-65.194667-16.341333M512 896C229.333333 896 0 666.752 0 384.085333 0 101.290667 229.034667-128 512-128 794.709333-128 1024 101.290667 1024 384 1023.744 666.624 794.666667 896 512 896"  horiz-adv-x="1024" />

    
    <glyph glyph-name="location1" unicode="&#58906;" d="M512.103132 575.879021a106.221743 106.221743 0 1 0-75.507022-31.354611A106.221743 106.221743 0 0 0 512.103132 575.879021m0 63.989002a170.850635 170.850635 0 1 1 120.939214-49.911422A169.570855 169.570855 0 0 1 512.103132 639.868023zM805.172761 771.685367a407.609942 407.609942 0 0 1-586.139257 0 431.285873 431.285873 0 0 1 0-599.576948L512.103132-128l293.069629 300.108419a431.285873 431.285873 0 0 1 0 599.576948z m-44.152411-557.344207l-248.917218-255.956007-248.917217 255.956007a365.377201 365.377201 0 0 0 0 508.712565 346.82039 346.82039 0 0 0 497.834435 0 365.377201 365.377201 0 0 0 0-508.712565z"  horiz-adv-x="1024" />

    
    <glyph glyph-name="Vue1" unicode="&#59077;" d="M1024 831.964934L549.006467 10.048 74.012934 831.964934h77.188305L549.006467 143.613955l397.805228 688.350979H1024zM549.006467 645.056835L439.197611 831.964934h-166.55574L549.006467 353.750352 825.371064 831.964934h-166.55574L549.006467 645.056835z"  horiz-adv-x="1183" />

    
    <glyph glyph-name="xingbie4" unicode="&#59325;" d="M447.351467 266.308267H284.2624V394.103467a217.2928 217.2928 0 0 1 187.8016 215.586133A217.224533 217.224533 0 0 1 255.1808 827.255467 217.224533 217.224533 0 0 1 38.365867 609.757867a217.224533 217.224533 0 0 1 187.733333-215.586134v-127.931733H63.010133a29.218133 29.218133 0 0 1 0-58.368h163.157334v-181.521067c0-16.042667 13.175467-29.218133 29.0816-29.218133a29.218133 29.218133 0 0 1 29.0816 29.218133V207.872h163.157333a29.218133 29.218133 0 0 1 0 58.436267zM255.1808 450.56c-42.325333 0-82.1248 16.520533-112.093867 46.557867a158.3104 158.3104 0 0 0-46.421333 112.4352c0 42.461867 16.520533 82.466133 46.421333 112.503466A157.2864 157.2864 0 0 0 255.1808 768.6144c42.325333 0 82.193067-16.520533 112.2304-46.557867 29.9008-30.037333 46.353067-70.0416 46.353067-112.4352 0-42.5984-16.452267-82.466133-46.421334-112.503466a157.2864 157.2864 0 0 0-112.162133-46.557867z m543.675733-79.4624V668.330667l133.12-133.5296a29.0816 29.0816 0 1 1 41.096534 41.233066L791.7568 758.1696 790.596267 759.466667a28.8768 28.8768 0 0 1-20.6848 8.533333h-0.887467c-0.682667 0-1.4336 0-2.184533-0.2048l-1.365334-0.136533-1.365333-0.136534c-0.477867-0.2048-0.887467-0.2048-1.297067-0.341333l-1.6384-0.4096-0.887466-0.273067-1.911467-0.750933-0.273067-0.136533a29.0816 29.0816 0 0 1-9.0112-6.144l-1.160533-1.297067-181.179733-181.930667a29.2864 29.2864 0 0 1 0-41.301333 29.013333 29.013333 0 0 1 41.1648 0l132.7104 133.256533v-297.301333A217.2928 217.2928 0 0 1 553.096533 155.306667a217.224533 217.224533 0 0 1 216.814934-217.4976 217.224533 217.224533 0 0 1 216.814933 217.4976 217.361067 217.361067 0 0 1-187.869867 215.722666z m-28.945066-374.715733c-42.325333 0-82.193067 16.520533-112.162134 46.557866a158.3104 158.3104 0 0 0-46.421333 112.4352c0 42.530133 16.520533 82.466133 46.421333 112.503467a157.2864 157.2864 0 0 0 112.162134 46.557867c42.325333 0 82.193067-16.520533 112.162133-46.557867 29.9008-30.037333 46.421333-69.973333 46.421333-112.4352 0-42.461867-16.384-82.466133-46.421333-112.503467a157.2864 157.2864 0 0 0-112.162133-46.557866z"  horiz-adv-x="1024" />

    
    <glyph glyph-name="xueli6" unicode="&#59326;" d="M1160.651435 504.149333a39.867733 39.867733 0 0 1-21.367467 35.293867L598.816768 822.6816a39.594667 39.594667 0 0 1-36.864 0L21.485568 539.374933a39.7312 39.7312 0 0 1 0-70.4512l183.569067-96.0512a37.546667 37.546667 0 0 1-3.2768-15.291733v-291.157333c0-10.6496 4.437333-20.138667 11.264-26.487467 3.4816-4.232533 7.645867-8.3968 12.6976-12.561067 54.408533-44.6464 221.5936-96.597333 344.746666-96.597333 3.2768 0 6.5536 0 9.6256 0.136533 102.1952 2.321067 330.1376 52.8384 370.210134 117.9648a36.864 36.864 0 0 1 7.9872 23.074134V364.270933a35.771733 35.771733 0 0 1-1.160534 9.216l136.3968 71.406934v-350.890667a33.109333 33.109333 0 1 1 66.3552 0V497.0496A32.426667 32.426667 0 0 1 1160.651435 504.149333z m-266.24-435.950933v-0.273067c-25.941333-24.302933-195.652267-68.334933-316.347734-71.202133-114.688-2.730667-282.487467 45.192533-311.978666 70.0416V340.855467l295.936-154.965334a39.936 39.936 0 0 1 36.864 0l295.3216 154.692267v-268.765867c0-1.297067 0-2.4576 0.136533-3.618133zM580.384768 250.606933L95.964501 504.149333 580.384768 758.101333l484.693333-254.020266-484.693333-253.474134z"  horiz-adv-x="1160" />

    
    <glyph glyph-name="Frame1" unicode="&#58907;" d="M511.488001 895.93408a401.087248 401.087248 0 0 1-402.303246-402.239246C109.184755 274.239246 412.800186-128 511.488001-128c98.687815 0 402.239246 402.239246 402.239246 621.694834 0 223.039582-179.199664 402.239246-402.239246 402.239246z m0-932.478251c-65.855877 0-329.151383 361.983321-329.151383 530.239005a327.743385 327.743385 0 0 0 329.151383 329.087383 327.743385 327.743385 0 0 0 329.087383-329.087383c0-168.255685-263.295506-530.303006-329.087383-530.303005zM511.488001 639.99856a146.687725 146.687725 0 0 1-146.303726-146.303726 146.687725 146.687725 0 0 1 146.303726-146.303725 146.687725 146.687725 0 0 1 146.239726 146.303725 146.687725 146.687725 0 0 1-146.239726 146.239726z m0-219.519588a73.343862 73.343862 0 0 0-73.151863 73.215862c0 40.191925 32.895938 73.087863 73.151863 73.087863 40.191925 0 73.087863-32.895938 73.087863-73.087863 0-40.255925-32.895938-73.151863-73.087863-73.151863z"  horiz-adv-x="1024" />

    
    <glyph glyph-name="Frame11" unicode="&#58908;" d="M511.488001 895.93408a401.087248 401.087248 0 0 1-402.303246-402.239246C109.184755 274.239246 412.800186-128 511.488001-128c98.687815 0 402.239246 402.239246 402.239246 621.694834 0 223.039582-179.199664 402.239246-402.239246 402.239246z m0-932.478251c-65.855877 0-329.151383 361.983321-329.151383 530.239005a327.743385 327.743385 0 0 0 329.151383 329.087383 327.743385 327.743385 0 0 0 329.087383-329.087383c0-168.255685-263.295506-530.303006-329.087383-530.303005zM511.488001 639.99856a146.687725 146.687725 0 0 1-146.303726-146.303726 146.687725 146.687725 0 0 1 146.303726-146.303725 146.687725 146.687725 0 0 1 146.239726 146.303725 146.687725 146.687725 0 0 1-146.239726 146.239726z m0-219.519588a73.343862 73.343862 0 0 0-73.151863 73.215862c0 40.191925 32.895938 73.087863 73.151863 73.087863 40.191925 0 73.087863-32.895938 73.087863-73.087863 0-40.255925-32.895938-73.151863-73.087863-73.151863z"  horiz-adv-x="1024" />

    
    <glyph glyph-name="Frame1-copy" unicode="&#58909;" d="M511.55000088 833.9420625a352.51808906 352.51808906 0 0 1-353.58683731-353.5305873C157.96316357 287.5305873 424.81266348-66 511.55000088-66c86.7373374 0 353.5305873 353.5305873 353.5305873 546.4114752 0 196.03088262-157.49970469 353.5305873-353.5305873 353.5305873z m0-819.56096279c-57.8811419 0-289.29320771 318.14940322-289.29320771 466.03037549a288.05570947 288.05570947 0 0 0 289.29320771 289.23695771 288.05570947 288.05570947 0 0 0 289.23695771-289.23695772c0-147.88097315-231.41206582-466.08662636-289.23695771-466.08662548zM511.55000088 608.99873437a128.9247583 128.9247583 0 0 1-128.58725918-128.58725918 128.9247583 128.9247583 0 0 1 128.58725918-128.58725829 128.9247583 128.9247583 0 0 1 128.53100918 128.58725829 128.9247583 128.9247583 0 0 1-128.53100918 128.53100918z m0-192.93713789a64.46237872 64.46237872 0 0 0-64.2936296 64.34987872c0 35.32493408 28.91244551 64.23737959 64.2936296 64.23737959 35.32493408 0 64.23737959-28.91244551 64.23737959-64.2373796 0-35.38118408-28.91244551-64.29362959-64.23737959-64.29362959z"  horiz-adv-x="1024" />

    
    <glyph glyph-name="weixin4" unicode="&#58910;" d="M506.942 550.079c25.259 0 42.134 16.916 42.134 42.107 0 25.477-16.848 41.956-42.134 41.956-25.299 0-50.668-16.48-50.668-41.956 0.028-25.204 25.409-42.107 50.668-42.107z m0 0z m-235.685 84.064c-25.259 0-50.79-16.48-50.79-41.956 0-25.19 25.532-42.107 50.79-42.107 25.163 0 42.012 16.916 42.012 42.107-0.014 25.477-16.834 41.956-42.012 41.956z m0 0z m739.397-353.635c0 133.202-123.563 246.702-275.237 258.512 0.205 1.652 0.301 3.373-0.068 5.092-30.406 141.79-182.886 248.695-354.7 248.695-194.15 0-352.119-135.387-352.119-301.793 0-89.279 45.574-169.725 131.946-233.158l-30.106-90.508a15.42 15.42 0 0 1 4.506-16.452 15.435 15.435 0 0 1 10.076-3.741c2.335 0 4.697 0.546 6.867 1.625l113.036 56.565 13.926-2.827c34.802-7.154 64.853-13.353 101.868-13.353 10.895 0 40.878 3.987 43.404 7.182 40.755-101.99 153.094-175.61 285.273-175.61 33.86 0 68.13 8.164 98.891 15.866l87.136-47.636c2.307-1.257 4.847-1.911 7.359-1.911 3.441 0 6.881 1.161 9.639 3.413 4.847 3.932 6.841 10.404 5.038 16.33L895.134 80.8c74.602 58.955 115.521 129.488 115.521 199.708zM409.798 230.25a338.345 338.345 0 0 0-29.082-1.243c-32.686 0-60.334 5.652-92.31 12.26l-18.582 3.755a14.266 14.266 0 0 1-9.503-1.269l-81.687-40.892 21.231 63.775c2.076 6.24-0.205 13.053-5.57 16.821-82.07 57.207-123.659 126.894-123.659 207.093 0 144.179 139.087 261.516 310.067 261.516 151.142 0 284.959-91.955 312.579-214.261-158.475-2.076-286.706-113.487-286.706-250.32 0-19.893 3.018-39.171 8.11-57.767-1.542 0.382-3.168 0.683-4.887 0.532z m450.573-122.949c-4.875-3.673-6.935-10.007-5.188-15.852l13.804-45.903-56.647 30.993a14.577 14.577 0 0 1-7.004 1.803c-1.188 0-2.389-0.15-3.564-0.464-30.379-7.674-61.822-15.593-92.433-15.593-142.186 0-257.857 97.717-257.857 217.811 0 120.095 115.658 217.771 257.857 217.771 139.469 0 257.325-99.724 257.325-217.771 0-59.87-37.738-121.255-106.291-172.797z m7.81-8.479zM616.454 389.994c-16.848 0-33.696-16.971-33.696-33.792 0-16.944 16.848-33.669 33.696-33.669 25.313 0 42.038 16.725 42.038 33.669 0 16.848-16.725 33.792-42.038 33.792z m0 0z m185.126 0c-16.603 0-33.451-16.971-33.451-33.792 0-16.944 16.848-33.669 33.451-33.669 25.231 0 42.257 16.725 42.257 33.669 0 16.848-16.998 33.792-42.257 33.792z m0 0z"  horiz-adv-x="1024" />

    
    <glyph glyph-name="huaban882" unicode="&#58911;" d="M1021.72444445 384a495.16088889 495.16088889 0 0 0-97.57582223-299.64515555 500.62222222 500.62222222 0 0 0-250.85724444-184.22897778 30.58346667 30.58346667 0 0 0-26.2144 4.73315555 25.85031111 25.85031111 0 0 0-8.00995556 20.02488889v139.81013334a119.05706667 119.05706667 0 0 1-34.58844444 94.29902222 473.31555555 473.31555555 0 0 1 67.72053333 11.65084444 248.30862222 248.30862222 0 0 1 62.2592 26.2144 187.50577778 187.50577778 0 0 1 53.52106667 43.69066667 209.35111111 209.35111111 0 0 1 36.40888889 69.90506667 334.2336 334.2336 0 0 1 13.83537778 100.12444444 191.87484445 191.87484445 0 0 1-52.7928889 136.53333333 176.21902222 176.21902222 0 0 1-5.09724444 135.44106667 87.01724445 87.01724445 0 0 1-53.52106666-7.28177778 341.87946667 341.87946667 0 0 1-61.16693334-29.12711111l-25.12213333-15.65582222a473.31555555 473.31555555 0 0 1-254.86222223 0c-7.28177778 5.09724445-16.384 10.55857778-28.03484444 17.84035555A371.00657778 371.00657778 0 0 1 300.82844445 675.27111111a94.29902222 94.29902222 0 0 1-57.16195556 9.10222222 178.40355555 178.40355555 0 0 1-4.73315556-136.53333333 197.70026667 197.70026667 0 0 1-52.4288-137.26151111A327.68 327.68 0 0 1 200.33991111 311.18222221999997a223.55057778 223.55057778 0 0 1 36.40888889-69.90506667 172.94222222 172.94222222 0 0 1 53.52106667-44.41884444 304.7424 304.7424 0 0 1 62.2592-26.2144 471.13102222 471.13102222 0 0 1 68.08462222-11.65084444 105.22168889 105.22168889 0 0 1-32.768-68.44871112 112.86755555 112.86755555 0 0 0-30.21937778-9.4663111 190.41848889 190.41848889 0 0 0-36.40888889-3.2768A78.6432 78.6432 0 0 0 274.61404445 92.72888889000001a124.5184 124.5184 0 0 0-36.4088889 41.50613333 109.22666667 109.22666667 0 0 1-32.03982222 34.58844445 91.7504 91.7504 0 0 1-32.768 16.01991111h-13.1072a47.33155555 47.33155555 0 0 1-19.29671111-2.91271111q-5.46133333-3.2768-3.2768-7.64586667a50.24426667 50.24426667 0 0 1 6.18951111-9.10222222 62.98737778 62.98737778 0 0 1 8.73813334-8.37404445l4.73315555-2.91271111a88.83768889 88.83768889 0 0 0 29.12711111-25.12213333 179.49582222 179.49582222 0 0 0 20.75306667-33.49617778l6.5536-15.29173333a82.28408889 82.28408889 0 0 1 29.12711111-41.14204445 109.22666667 109.22666667 0 0 1 44.05475556-18.93262222 223.18648889 223.18648889 0 0 1 45.8752-4.73315556 207.16657778 207.16657778 0 0 1 36.40888888 2.54862223l15.29173334 2.54862222v-95.39128889a26.2144 26.2144 0 0 0-8.73813334-20.02488889 31.67573333 31.67573333 0 0 0-26.57848888-4.73315555 498.43768889 498.43768889 0 0 0-249.40088889 185.32124444A486.78684445 486.78684445 0 0 0 2.27555555 384a497.70951111 497.70951111 0 0 0 68.44871112 254.86222222A504.6272 504.6272 0 0 0 257.13777778 825.27573333 497.70951111 497.70951111 0 0 0 512 893.72444445a497.70951111 497.70951111 0 0 0 254.86222222-68.44871112A504.6272 504.6272 0 0 0 953.27573333 638.8622222199999 496.98133333 496.98133333 0 0 0 1021.72444445 384z"  horiz-adv-x="1024" />

    
    <glyph glyph-name="github2" unicode="&#58912;" d="M932 384a408 408 0 0 0-80.4-246.9 412.5 412.5 0 0 0-206.7-151.8 25.2 25.2 0 0 0-21.6 3.9 21.3 21.3 0 0 0-6.6 16.5v115.2a98.1 98.1 0 0 1-28.5 77.7 390 390 0 0 1 55.8 9.6 204.6 204.6 0 0 1 51.3 21.6 154.5 154.5 0 0 1 44.1 36 172.5 172.5 0 0 1 30 57.6 275.4 275.4 0 0 1 11.4 82.5 158.1 158.1 0 0 1-43.5 112.5 145.2 145.2 0 0 1-4.2 111.6 71.7 71.7 0 0 1-44.1-6 281.7 281.7 0 0 1-50.4-24l-20.7-12.9a390 390 0 0 1-210 0c-6 4.2-13.5 8.7-23.1 14.7A305.7 305.7 0 0 1 338 624a77.7 77.7 0 0 1-47.1 7.5 147 147 0 0 1-3.9-112.5 162.9 162.9 0 0 1-43.2-113.1A270 270 0 0 1 255.2 324a184.2 184.2 0 0 1 30-57.6 142.5 142.5 0 0 1 44.1-36.6 251.1 251.1 0 0 1 51.3-21.6 388.2 388.2 0 0 1 56.1-9.6 86.7 86.7 0 0 1-27-56.4 93 93 0 0 0-24.9-7.8 156.9 156.9 0 0 0-30-2.7A64.8 64.8 0 0 0 316.4 144a102.6 102.6 0 0 0-30 34.2 90 90 0 0 1-26.4 28.5 75.6 75.6 0 0 1-27 13.2h-10.8a39 39 0 0 1-15.9-2.4q-4.5-2.7-2.7-6.3a41.4 41.4 0 0 1 5.1-7.5 51.9 51.9 0 0 1 7.2-6.9l3.9-2.4a73.2 73.2 0 0 0 24-20.7 147.9 147.9 0 0 0 17.1-27.6l5.4-12.6a67.8 67.8 0 0 1 24-33.9 90 90 0 0 1 36.3-15.6 183.9 183.9 0 0 1 37.8-3.9 170.7 170.7 0 0 1 30 2.1l12.6 2.1v-78.6a21.6 21.6 0 0 0-7.2-16.5 26.1 26.1 0 0 0-21.9-3.9 410.7 410.7 0 0 0-205.5 152.7A401.1 401.1 0 0 0 92 384a410.1 410.1 0 0 0 56.4 210A415.8 415.8 0 0 0 302 747.6 410.1 410.1 0 0 0 512 804a410.1 410.1 0 0 0 210-56.4A415.8 415.8 0 0 0 875.6 594 409.5 409.5 0 0 0 932 384z"  horiz-adv-x="1024" />

    
    <glyph glyph-name="jiaoyin" unicode="&#58880;" d="M355.064966 737.093731c0-87.81145-71.144689-158.954184-158.959855-158.954184-87.76823 0-158.914874 71.143711-158.914874 158.954184 0 87.764514 71.146645 158.906269 158.914874 158.906269C283.920179 896 355.064966 824.858244 355.064966 737.093731zM569.619936 816.522908c0-43.903818-35.572882-79.476114-79.480417-79.476114s-79.479439 35.571318-79.479439 79.476114c0 43.905774 35.571905 79.477092 79.479439 79.477092S569.619936 860.428682 569.619936 816.522908zM800.050885 796.689106c0-43.905774-35.571905-79.477092-79.479439-79.477092s-79.480417 35.571318-79.480417 79.477092 35.572882 79.477092 79.480417 79.477092C764.479078 876.167078 800.050885 840.594783 800.050885 796.689106zM986.808884 693.373649c0-43.905774-35.572882-79.477092-79.480417-79.477092-43.907534 0-79.479439 35.571318-79.479439 79.477092s35.571905 79.477092 79.479439 79.477092C951.235024 772.850741 986.808884 737.279325 986.808884 693.373649zM284.478234 488.745065c0 0 50.658275 140.050605 244.353489 163.88897 0 0 299.017305 20.858875 350.513983-273.953799 25.142907-144.055071 14.667168-456.095496-216.417567-503.585458-55.780807-11.45456-217.534558 2.79282-196.674802 148.802209 7.356515 51.635238 55.780807 135.674754 0 208.585233C427.514294 283.139224 233.81996 298.038337 284.478234 488.745065"  horiz-adv-x="1024" />

    
    <glyph glyph-name="xueli" unicode="&#58959;" d="M956.269921 600.527498c-0.750083-3.747347-1.313925-7.499811-2.436492-11.251252-8.818853-32.822546-29.634948-53.642734-62.457494-61.892629-22.881127-5.818519-45.950542-10.879792-69.209268-15.94618-4.690836-0.935302-5.629207-3.000334-5.629207-7.311523 0.187265-74.65121-0.375553-149.296281 0.37453-223.757157 0.375553-35.639708-14.063297-63.395866-41.447994-84.968184-23.445992-18.754133-50.6424-30.004361-79.150688-38.635949-34.136471-10.127661-69.396533-15.565511-104.84386-18.754133-40.702004-3.563152-81.216743-4.315282-121.913631-2.623757-52.516074 2.248204-104.656595 7.687076-154.924465 24.003693-27.572986 9.006118-53.643758 20.821211-75.586512 40.326451-23.820522 21.007453-36.199457 46.889937-36.011168 79.149665 0.375553 75.023694 0.188288 150.045341 0.188288 225.260393 0 4.311189-0.938372 6.376221-5.629207 7.311523-22.881127 5.067412-45.763276 10.316973-68.645426 15.757892-34.884508 8.06263-59.45716 35.260062-64.519456 70.707388-0.187265 0.938372-0.562818 1.690502-0.751107 2.62478l0 16.693194c0.375553 0.938372 0.751107 1.690502 0.938372 2.629897 4.875031 34.69622 28.883841 61.892629 62.833047 69.955258 106.906845 24.948205 213.815737 49.516764 320.91087 74.275657 17.820877 4.123924 35.82288 8.06263 53.643758 12.190647l15.753799 0c4.126994-0.939395 8.066723-1.686409 12.189623-2.62478 120.038934-27.760251 240.073774-55.140855 360.113731-83.089393 33.573653-7.879458 54.765301-28.883841 63.771419-62.270229 0.934279-3.751441 1.49812-7.879458 2.436492-11.630898L956.267874 600.527498 956.269921 600.527498zM761.208317 496.810299c-2.061962-0.376577-3.187599-0.376577-4.498454-0.75213-72.773444-16.880459-145.546887-33.573653-218.132042-50.455135-15.196097-3.559059-30.385031-6.000668-45.951565-2.436492-72.39789 16.693194-144.794757 33.385365-217.380936 50.078559-5.253654 1.314948-10.691503 2.436492-16.693194 3.752464l0-6.377244c0-69.584821 0.376577-139.356908-0.188288-208.942753-0.188288-13.504572 4.686742-23.633257 14.256702-32.258705 3.747347-3.37691 7.686053-6.752798 12.002358-9.565866 19.129686-13.317307 40.514739-21.75549 62.644759-28.507264 38.446637-11.818163 77.834716-17.444301 117.785613-19.880793 57.583486-3.37691 114.78528-1.127683 171.429371 10.499122 30.948873 6.376221 61.141522 15.57165 88.714508 31.324426 10.879792 6.188956 21.195741 13.504572 29.070082 23.633257 4.690836 6.001691 7.128351 12.754488 7.128351 20.62883-0.188288 71.088058 0 142.171 0 213.069747C761.208317 492.682281 761.208317 494.372783 761.208317 496.810299L761.208317 496.810299zM508.756631 496.810299c3.563152 0.562818 6.000668 0.751107 8.438183 1.309832 92.465948 21.38403 184.932919 42.579771 277.399891 63.958684l82.71384 19.129686c11.625782 2.62478 19.506263 9.18929 22.505573 21.0095 4.128017 16.504906-5.813403 30.573319-24.00881 34.883485-118.725008 27.384697-237.633189 54.769394-356.357174 82.149998-6.376221 1.503237-12.383028 1.503237-18.759249 0-48.952922-11.438517-97.903797-22.693862-146.856719-33.94409-70.14764-16.130376-140.296303-32.263821-210.43985-48.581462-14.818497-3.375887-23.820522-14.063297-23.820522-27.943422 0-13.880125 9.18929-24.197098 24.00881-27.760251l336.481498-77.647451C490.001475 500.937293 499.942895 498.682949 508.756631 496.810299L508.756631 496.810299zM508.756631 496.810299M894.189004-4.911614c-3.187599 0.751107-6.188956 1.502213-9.377578 2.437515-26.070772 7.691169-42.574654 32.82664-39.574321 60.395532 3.000334 26.446325 10.499122 51.764967 23.257703 75.209936 4.311189 8.067746 10.127661 15.757892 16.504906 22.135136 9.753131 9.94142 21.379936 9.94142 31.133068-0.188288 6.940063-7.314593 12.94073-15.757892 17.819854-24.571628 11.438517-21.567201 18.190291-44.825928 21.567201-69.210291 0.188288-1.12666 0.562818-2.060939 0.938372-3.000334l0-13.880125c-0.375553-0.934279-0.750083-2.061962-0.938372-3.000334-4.686742-22.319331-17.815761-36.950564-39.387056-43.890626-2.813069-0.935302-6.000668-1.49812-8.813736-2.249227C902.815475-4.911614 898.500193-4.911614 894.189004-4.911614L894.189004-4.911614zM894.189004-4.911614M872.805998 344.136084 872.805998 468.485183c0 15.196097 10.127661 26.63359 24.758893 28.325116 15.942087 1.87265 30.010501-10.128685 30.944779-26.25906l0-2.813069 0-248.329808c0-20.25737-18.378579-33.95023-37.133735-27.38572-11.255345 3.939729-18.569938 14.256702-18.569938 26.821879L872.805998 344.136084 872.805998 344.136084zM872.805998 344.136084"  horiz-adv-x="1024" />

    
    <glyph glyph-name="Group" unicode="&#58954;" d="M124.984889 657.351111a467.228444 467.228444 0 0 1 687.843555-632.433778l-87.608888 87.438223A343.665778 343.665778 0 1 0 212.195556 569.628444L125.041778 657.351111zM483.555556 99.555556a256 256 0 1 0 0 512 256 256 0 0 0 0-512z m0 409.6a153.6 153.6 0 1 1 0-307.2 153.6 153.6 0 0 1 0 307.2zM1019.733333 352.654222a11.491556 11.491556 0 0 1-3.413333 8.135111L846.279111 530.773333a3.868444 3.868444 0 0 1-6.542222-2.730666l-0.113778-113.664-145.863111 0.056889a11.377778 11.377778 0 0 1-8.021333-3.356445 11.662222 11.662222 0 0 1-3.413334-8.078222l-0.113777-103.480889a11.491556 11.491556 0 0 1 11.548444-11.548444h145.749333l-0.284444-110.705778c0-1.536 0.910222-2.958222 2.389333-3.527111 1.479111-0.568889 3.072-0.284444 4.152889 0.796444l170.609778 169.927111a11.377778 11.377778 0 0 1 3.356444 8.192zM483.441778 890.026667a11.491556 11.491556 0 0 1-8.135111-3.413334L305.322667 716.686222a3.868444 3.868444 0 0 1 2.730666-6.542222l113.664-0.170667 0.170667-152.405333a11.377778 11.377778 0 0 1 3.413333-8.021333c2.161778-2.275556 5.12-3.356444 8.021334-3.413334l103.537777-0.170666a11.491556 11.491556 0 0 1 11.491556 11.605333l-0.227556 152.348444 110.705778-0.284444a3.868444 3.868444 0 0 1 2.730667 6.542222L491.633778 886.670222a11.377778 11.377778 0 0 1-8.192 3.413334zM483.555556 355.555556m-85.333334 0a85.333333 85.333333 0 1 1 170.666667 0 85.333333 85.333333 0 1 1-170.666667 0Z"  horiz-adv-x="1024" />

    
    <glyph glyph-name="vue" unicode="&#58992;" d="M622.7421875 753.140625L512 526.3828125 401.2578125 753.140625H232.5078125L512 262.7109375 791.4921875 753.140625h-168.75z m0 0M512 262.7109375L786.21875 753.140625H933.875L512 14.859375 90.125 753.140625h147.65625L512 262.7109375z m0 0"  horiz-adv-x="1024" />

    
    <glyph glyph-name="css" unicode="&#58881;" d="M271.97 402.72q-39.64-42.94-96.9-42.94-61.66 0-97.99 34.13-38.54 35.23-57.26 98Q0 556.87 0 628.44q0 82.58 22.02 140.94 20.92 58.35 62.76 92.49Q127.72 893.8 175.07 893.8q56.16 0 93.59-41.84 37.44-38.54 53.96-110.11l-60.56-24.22q-14.32 44.04-32.49 64.41-18.16 20.37-54.5 20.37-39.64 0-62.21-23.13t-34.69-53.96q-12.12-30.83-15.42-58.35-3.3-27.53-3.3-37.43 0-71.57 15.96-109 15.97-37.44 35.79-52.85 19.82-15.42 37.43-18.72 17.62-3.31 20.93-3.31 41.84 0 67.17 22.57 25.32 22.57 35.24 87.54l56.15-24.23q-15.41-84.78-56.15-128.82z m249.94 262.05q56.15-16.51 85.88-37.43 29.73-20.92 44.05-42.95 14.31-22.02 17.07-40.74 2.75-18.71 2.75-29.72 0-56.16-14.87-86.99t-35.24-45.69q-20.37-14.87-45.14-18.17-24.77-3.3-43.5-3.3-71.57 0-110.66 18.16-39.09 18.17-56.7 45.14-17.62 26.97-20.92 56.7-3.31 29.73-3.31 53.96h66.07q0-14.32 1.65-31.38t12.66-31.38q11.01-14.31 34.13-24.23 23.13-9.91 64.96-9.91 35.23 0 52.85 6.05 17.62 6.06 25.33 15.42 7.71 9.36 7.71 22.57v26.43q0 8.81-4.4 18.72-4.41 9.91-14.87 21.47-10.46 11.56-31.38 22.57-20.92 11.01-53.95 25.33-11.01 3.3-36.88 11-25.88 7.71-52.85 25.88-26.98 18.17-47.35 46.8-20.37 28.63-20.37 71.57 0 13.21 4.4 37.44 4.41 24.22 22.02 47.34 17.62 23.12 51.2 40.74 33.59 17.62 93.03 17.62 57.26 0 89.19-23.68 31.93-23.67 47.89-50.65 15.97-26.97 18.72-51.75 2.75-24.78 2.75-29.17l-56.16-6.61q-7.7 20.92-14.31 35.79-6.61 14.86-17.07 24.22t-25.88 14.31Q545 811.2 519.68 811.2q-56.16 0-80.38-18.17t-24.22-49q0-27.53 24.22-44.05 24.22-16.51 82.58-35.23z m350.14 2.21q61.66-17.62 92.49-37.99t44.05-42.39q13.21-22.02 13.21-41.29v-30.28q0-47.35-14.32-76.53-14.31-29.18-35.23-47.35-20.92-18.16-45.69-24.22-24.78-6.05-44.6-6.05-70.47 0-109.01 24.77-38.53 24.78-56.15 56.71-17.62 31.93-21.47 59.45-3.85 27.52-3.85 34.13h74.87q0-3.3 0.55-17.62 0.55-14.31 9.91-30.28 9.36-15.96 30.83-28.08 21.47-12.12 63.31-12.12 26.43 0 41.29 3.86 14.87 3.85 23.67 12.11 8.81 8.26 11.01 19.82 2.21 11.56 2.21 25.87 0 7.71-0.55 15.97-0.55 8.26-8.81 17.62-8.26 9.35-28.08 18.71-19.82 9.36-58.36 22.58-13.21 3.3-38.53 13.76-25.33 10.46-52.3 30.28-26.98 19.82-47.35 50.65t-20.37 73.77q0 13.21 4.4 37.43 4.41 24.23 21.47 47.35 17.07 23.13 51.75 40.74Q807.09 895.97 866.54 895.97q56.15 0 88.63-23.13t47.89-50.65q15.41-27.52 18.17-52.85 2.75-25.32 2.75-28.63l-68.27-6.61q-7.7 20.92-12.11 34.69-4.4 13.77-12.66 24.23t-22.03 14.31q-13.76 3.85-40.18 3.85-53.95 0-75.98-17.07-22.02-17.07-22.02-47.9 0-15.41 2.2-25.32 2.21-9.91 12.67-18.72 10.46-8.81 30.28-17.62t56.15-17.61z"  horiz-adv-x="1024" />

    
    <glyph glyph-name="less" unicode="&#59183;" d="M1225.4 458c0 41 6.4 65.2 6.4 109.2 0 68.4-25.2 90.4-81 90.4h-41v-48.4h12.6c28.4 0 34.6-9.4 34.6-44.2 0-32.6-3.2-65.2-3.2-103 0-48.4 15.8-67.2 47.2-74.6v-3.2c-31.6-7.4-47.2-26.2-47.2-74.6 0-37.8 3.2-68.4 3.2-103 0-35.8-7.4-45.2-34.6-45.2v-1h-12.6V110h41c55.6 0 81 22 81 90.4 0 45.2-6.4 68.4-6.4 109.2 0 22 13.6 45.2 54.6 47.2v54.6c-41 1.4-54.6 24.6-54.6 46.6z m-211.2-64c-31.6 12.6-61 20-61 41 0 15.8 12.6 25.2 35.8 25.2s44.2-9.4 67.2-26.2l42 55.6c-26.2 20-62 41-110.4 41-71.4 0-119.8-41-119.8-98.8 0-51.4 45.2-77.8 83-92.4 32.6-12.6 64.2-23.2 64.2-44.2 0-15.8-12.6-26.2-41-26.2-26.2 0-52.6 10.6-81 32.6l-42-61c31.6-26.2 79.8-44.2 119.8-44.2 84 0 129.2 44.2 129.2 102s-45 82-86 95.6z m-717.8-118.8c-7.4 0-16.8 6.4-16.8 26.2V657.8H130.4c-56.8 0-82-22-82-90.4 0-45.2 6.4-70.4 6.4-109.2 0-22-13.6-45.2-54.6-47.2v-54.6c41-1 54.6-24.2 54.6-46.2 0-38.8-6.4-62-6.4-107.2 0-68.4 25.2-90.4 81-90.4h41v48.4h-12.6c-26.2 0-34.6 10.6-34.6 45.2s3.2 64.2 3.2 103c0 48.4-15.8 67.2-47.2 74.6v3.2c31.6 7.4 47.2 26.2 47.2 74.6 0 37.8-3.2 68.4-3.2 103s7.4 44.2 34.6 44.2H186v-301.6c0-64.2 22-106.2 86.2-106.2 20 0 35.8 3.2 47.2 7.4l-10.6 68.4c-6.2-1.6-9.2-1.6-12.4-1.6zM759.8 394c-32.6 12.6-62 20-62 41 0 15.8 12.6 25.2 35.8 25.2 23.2 0 44.2-9.4 67.2-26.2l42 55.6c-26.2 20-62 41-110.4 41-71.4 0-119.8-41-119.8-98.8 0-51.4 45.2-77.8 83-92.4 32.6-12.6 64.2-23.2 64.2-44.2 0-15.8-12.6-26.2-41-26.2-26.2 0-52.6 10.6-81 32.6l-41-61c31.6-26.2 79.8-44.2 119.8-44.2 84 0 129.2 44.2 129.2 102 0.2 57.8-45 82-86 95.6z m-310 137.6c-76.8 0-150.2-64.2-148.2-165 0-104 68.4-165 158.6-165 37.8 0 79.8 13.6 112.4 35.8l-31.6 55.6c-23.2-13.6-45.2-20-68.4-20-42 0-74.6 20-83 68.4H580c1 7.4 3.2 22 3.2 38.8 1.2 85.2-45.2 151.4-133.4 151.4z m-60-132.4c6.4 42 31.6 62 61 62 37.8 0 52.6-26.2 52.6-62h-113.6z"  horiz-adv-x="1280" />

    
    <glyph glyph-name="jiaoyinzujifangke" unicode="&#59200;" d="M320 768C320 838.656 262.656 896 192 896S64 838.656 64 768s57.344-128 128-128 128 57.344 128 128z m224-64c52.992 0 96 43.008 96 96S596.992 896 544 896s-96-43.008-96-96 43.008-96 96-96zM864 832c-52.992 0-96-43.008-96-96s43.008-96 96-96 96 43.008 96 96-43.008 96-96 96zM537.088 638.784c-77.056 1.216-164.736-10.688-234.944-72.896-70.272-62.208-61.504-217.6 37.824-259.392 99.392-41.728 121.28-113.92 94.656-203.776C408 12.864 453.44-64 567.04-64 762.88-64 832 119.488 832 325.056c0 223.552-87.872 310.592-294.912 313.728z"  horiz-adv-x="1024" />

    
    <glyph glyph-name="nianling" unicode="&#58900;" d="M674.30935-128V406.809754a1035.750849 1035.750849 0 0 1 148.864571-16.540508 435.566707 435.566707 0 0 1 333.96073 122.872344A463.921863 463.921863 0 0 1 1261.891201 858.129326V884.909196l-33.868659 4.725859A777.403869 777.403869 0 0 1 1127.204209 895.936201a675.797893 675.797893 0 0 1-269.373986-51.984453 427.690275 427.690275 0 0 1-195.335521-226.841251c-8.664076-19.691081-16.540508-37.806875-23.629297-55.135026A484.400587 484.400587 0 0 1 595.545027 659.643231 393.821616 393.821616 0 0 1 466.371537 795.117867 621.45051 621.45051 0 0 1 131.623164 895.936201 409.57448 409.57448 0 0 1 31.592474 884.121552L5.600247 877.820407 1.662031 852.615823a615.937007 615.937007 0 0 1 8.664075-157.528646 541.1109 541.1109 0 0 1 47.258594-137.049922A393.821616 393.821616 0 0 1 159.190677 423.350262a630.114585 630.114585 0 0 1 197.698451-107.119479 430.840848 430.840848 0 0 1 148.864571-31.50573 595.458283 595.458283 0 0 1 84.277826 0V-128z m-157.528646 489.126447a485.975874 485.975874 0 0 0-305.605574 118.934128 331.5978 331.5978 0 0 0-85.065469 107.907122 485.975874 485.975874 0 0 0-39.382161 119.721772A664.770887 664.770887 0 0 0 80.426354 817.171878a472.585939 472.585939 0 0 0 54.347383 0 551.350262 551.350262 0 0 0 289.852709-78.764323 315.057293 315.057293 0 0 0 103.968907-111.845339 449.744285 449.744285 0 0 0 49.621523-129.17349A618.299937 618.299937 0 0 0 592.394454 368.215236a384.369897 384.369897 0 0 0-73.25082-7.088789m580.493061 199.273737a362.315886 362.315886 0 0 0-276.462774-98.455404 844.353544 844.353544 0 0 0-135.474636 11.814649 834.901825 834.901825 0 0 0 44.895665 114.995912 371.767605 371.767605 0 0 0 157.528646 190.609662 611.211148 611.211148 0 0 0 236.292969 44.895664h58.285599a376.493465 376.493465 0 0 0-85.853112-261.497553"  horiz-adv-x="1264" />

    
    <glyph glyph-name="CSS" unicode="&#58914;" d="M1003.52 448.6144h-75.6736V650.24L688.9472 896H154.624a61.44 61.44 0 0 1-61.44-61.44v-385.9456H20.48a20.48 20.48 0 0 1-20.48-20.48v-404.48a20.48 20.48 0 0 1 20.48-20.48h72.704V-66.56a61.44 61.44 0 0 1 61.44-61.44h711.7824a61.44 61.44 0 0 1 61.44 61.44v69.7344H1003.52a20.48 20.48 0 0 1 20.48 20.48v404.48a20.48 20.48 0 0 1-20.48 20.48zM164.864 824.32H655.36v-199.8848h200.8064v-175.8208H164.864z m583.68-615.936a366.592 366.592 0 0 1-39.936 14.1312A311.0912 311.0912 0 0 0 661.504 240.64a47.9232 47.9232 0 0 0-23.552 43.3152 51.2 51.2 0 0 0 23.04 44.8512 90.0096 90.0096 0 0 0 54.6816 15.6672 90.5216 90.5216 0 0 0 56.6272-15.6672 70.4512 70.4512 0 0 0 24.7808-52.0192h-33.4848A46.7968 46.7968 0 0 1 747.52 305.2544a54.1696 54.1696 0 0 1-33.8944 8.704 61.44 61.44 0 0 1-29.5936-5.7344 23.1424 23.1424 0 0 1-12.6976-22.2208A24.064 24.064 0 0 1 686.08 263.9872 261.8368 261.8368 0 0 1 721.1008 250.88a288.4608 288.4608 0 0 0 53.76-21.0944 51.712 51.712 0 0 0 26.7264-46.2848 54.8864 54.8864 0 0 0-21.6064-45.6704 99.1232 99.1232 0 0 0-61.44-16.5888 99.84 99.84 0 0 0-59.2896 15.36q-26.2144 18.944-28.16 59.8016h33.3824a51.2 51.2 0 0 1 16.6912-34.9184 61.44 61.44 0 0 1 37.376-9.3184 69.9392 69.9392 0 0 1 35.6352 7.7824A24.7808 24.7808 0 0 1 768 181.3504a30.1056 30.1056 0 0 1-19.3536 27.0336z m-194.56 0a366.592 366.592 0 0 1-39.936 14.1312A311.0912 311.0912 0 0 0 467.1488 240.64a47.9232 47.9232 0 0 0-23.552 43.3152 51.2 51.2 0 0 0 23.04 44.8512 90.0096 90.0096 0 0 0 54.6816 15.6672 90.5216 90.5216 0 0 0 56.6272-15.6672 70.4512 70.4512 0 0 0 24.7808-52.0192h-33.4848A46.7968 46.7968 0 0 1 552.96 305.2544a54.1696 54.1696 0 0 1-33.8944 8.704 61.44 61.44 0 0 1-29.5936-5.7344 23.1424 23.1424 0 0 1-12.6976-22.2208A24.064 24.064 0 0 1 491.52 263.9872 261.8368 261.8368 0 0 1 526.6432 250.88a288.4608 288.4608 0 0 0 53.76-21.0944 51.712 51.712 0 0 0 26.7264-46.2848 54.8864 54.8864 0 0 0-21.6064-45.6704 99.1232 99.1232 0 0 0-61.44-16.5888 99.84 99.84 0 0 0-59.2896 15.36q-26.2144 18.944-28.16 59.8016H471.04a51.2 51.2 0 0 1 16.6912-34.9184 61.44 61.44 0 0 1 37.376-9.3184 69.9392 69.9392 0 0 1 35.6352 7.7824A24.7808 24.7808 0 0 1 573.44 181.3504a30.1056 30.1056 0 0 1-19.1488 27.0336zM270.7456 174.08a57.5488 57.5488 0 0 1 49.7664-21.9136 56.2176 56.2176 0 0 1 35.9424 11.1616 65.9456 65.9456 0 0 1 20.48 36.6592H409.6a95.9488 95.9488 0 0 0-32.256-58.9824 85.504 85.504 0 0 0-56.9344-19.8656q-51.2 0-76.4928 33.6896a124.7232 124.7232 0 0 0-21.8112 77.6192 124.1088 124.1088 0 0 0 22.7328 77.9264 88.064 88.064 0 0 0 75.0592 33.9968 88.9856 88.9856 0 0 0 59.8016-19.8656 80.1792 80.1792 0 0 0 27.0336-51.712h-32.768a51.2 51.2 0 0 1-19.2512 30.72 59.6992 59.6992 0 0 1-35.328 9.6256 55.296 55.296 0 0 1-48.64-23.1424A96.4608 96.4608 0 0 1 256 232.448a99.0208 99.0208 0 0 1 14.7456-58.368zM856.1664-56.32H164.864v59.4944h691.3024z"  horiz-adv-x="1024" />

    
    <glyph glyph-name="jiaoyin1" unicode="&#58888;" d="M463.6 671.4c-32.1-63-110.4-87.4-175-54.5-64.5 32.9-90.8 110.6-58.7 173.6 32.1 63 110.4 87.4 175 54.5 64.5-32.9 90.8-110.6 58.7-173.6z m186.8-23.3c-16.1-31.5-55.2-43.7-87.5-27.3-32.3 16.4-45.4 55.3-29.4 86.8 16.1 31.5 55.2 43.7 87.5 27.3 32.3-16.5 45.5-55.3 29.4-86.8z m162.2-100.6c-16.1-31.5-55.2-43.7-87.5-27.3-32.3 16.4-45.4 55.3-29.4 86.8 16.1 31.5 55.2 43.7 87.5 27.3 32.3-16.4 45.5-55.3 29.4-86.8z m99.6-144.1c-16.1-31.5-55.2-43.7-87.5-27.3-32.3 16.4-45.4 55.3-29.4 86.8 16.1 31.5 55.2 43.7 87.5 27.3 32.3-16.5 45.4-55.3 29.4-86.8zM320.9 519.6s88.5 81.5 239.6 26.1c0 0 227.5-97.1 157.5-328-34.2-112.8-156-332.9-343.3-280.4-45.2 12.7-158.9 83.5-90.2 180.5 24.3 34.3 90.6 76.5 76.3 149.7-9.9 51-146.9 134.2-39.9 252.1z"  horiz-adv-x="1024" />

    
    <glyph glyph-name="elementui" unicode="&#58884;" d="M513.856 866.624L90.24 634.112l-0.768-483.2 420.672-249.472 423.616 232.512 0.768 483.136L513.856 866.624zM218.112 558.336l293.312 160.896 187.2-111.808L512 500.608v-123.264l293.12 163.584-0.768-96.128L512 276.608v-123.264l292.8 163.328 0.448-106.88-292.928-161.024-294.848 174.976 0.64 334.592z"  horiz-adv-x="1024" />

    
    <glyph glyph-name="zuobiao" unicode="&#58989;" d="M792.093989 291.474286l-1.060572-1.462857-1.024-1.645715c-1.024-1.755429-2.340571-3.876571-3.035428-4.790857l-265.801143-317.915428-0.585143-0.694858c-3.657143-4.608-9.801143-10.093714-18.139429-10.093714-8.411429 0-14.518857 5.485714-18.176 10.093714l-0.292571 0.365715-266.24 318.464-0.146286 0.219428-1.865143 2.925715a306.944 306.944 0 0 1-1.682285 2.669714l-0.658286 1.060571-0.731429 0.987429a317.147429 317.147429 0 0 0-62.061714 188.123428c0 183.076571 157.842286 332.032 351.817143 332.032 193.901714 0 351.707429-148.992 351.817143-332.068571a319.634286 319.634286 0 0 0-62.134857-188.269714m105.325714 348.598857a407.844571 407.844571 0 0 1-92.379429 130.267428C724.107703 847.213714 616.660846 889.526857 502.448274 889.526857c-114.249143 0-221.732571-42.313143-302.665143-119.186286A407.625143 407.625143 0 0 1 107.293989 640.109714a394.532571 394.532571 0 0 1 42.166857-393.362285l0.585143-0.914286c2.011429-3.254857 4.754286-7.643429 8.594285-12.178286l265.545143-317.659428c19.858286-24.685714 48.347429-38.838857 78.262857-38.838858 30.244571 0 58.002286 13.787429 78.116572 38.838858l265.728 317.805714 0.256 0.292571c3.693714 4.498286 6.509714 8.96 8.667428 12.470857a395.52 395.52 0 0 1 76.324572 233.142858 392.338286 392.338286 0 0 1-34.121143 160.365714"  horiz-adv-x="1024" />

    
    <glyph glyph-name="xueli1" unicode="&#58967;" d="M978.338095 484.487123v-334.919182c0-24.502757 16.335526-40.837221 40.837221-40.837221 24.375261 0 40.709724 16.335526 40.83722 40.837221V508.42677c0 4.610071-0.579048 8.930087-1.680832 12.906924 26.882697 20.120055 42.390556 52.499989 42.390556 84.975546 0 40.709724-24.375261 81.546944-73.379713 97.88247L607.53388 883.748621c-40.837221 16.334463-81.546944 16.334463-122.384165 0L65.339985 704.19171C24.502764 687.856184 0.000007 647.14646 0.000007 606.30924c0-40.837221 24.502757-81.546944 65.339978-97.88247l138.592193-58.162972v-398.705824c0-98.009967 81.674441-179.556911 179.556912-179.556912h333.744087c97.88247 0 179.556911 81.546944 187.725205 179.429415V453.691337l73.379713 30.795786zM81.546951 606.30924c0 8.167232 0 16.334463 16.334463 16.334463L517.690082 802.073118c8.167232 8.167232 24.502757 8.167232 32.669989 8.167231s24.502757 0 32.669989-8.039735l419.681171-179.429414c16.334463 0 16.334463-8.167232 16.334463-16.335526 0-8.167232 0-16.334463-16.334463-16.334463L582.903626 410.545362c-24.375261-8.167232-40.709724-8.167232-65.212482 0L272.311892 515.422093c-5.543985 4.730131-12.616869 7.834678-20.854224 8.913088l-153.575191 65.639596c-16.335526 0-16.335526 8.167232-16.335526 16.334463z m741.735928-554.878763c0-48.876955-48.876955-97.88247-97.88247-97.88247H383.48909c-57.044187 0-97.88247 40.709724-97.88247 97.88247v364.55581l207.581767-87.116429c16.334463-8.167232 40.837221-8.167232 57.172746-8.167231s40.837221 0 57.172747 8.167231l215.748999 90.545031v-367.984412zM1019.175316 76.060731c-36.11559 0-65.339978-29.096892-65.339978-65.212481 0-36.11559 29.224388-65.339978 65.339978-65.339978s65.339978 29.224388 65.339978 65.339978c0 35.988093-29.224388 65.212481-65.339978 65.212481z"  horiz-adv-x="1100" />

    
    <glyph glyph-name="xingbie" unicode="&#58982;" d="M641.68 409.23v155l76.11-76.02a10.26 10.26 0 0 1 7.28-3.02c2.64 0 5.28 1 7.29 3.02 4.03 4.03 4.03 10.54 0 14.56l-101 100.88L530.4 502.78c-4.03-4.03-4.03-10.55 0-14.57 4.02-4.02 10.55-4.02 14.58 0l76.09 76.02v-154.99c-62.22-5.26-111.27-57.45-111.27-120.96 0-66.97 54.54-121.46 121.58-121.46 67.04 0 121.61 54.48 121.6 121.46-0.02 63.5-49.07 115.69-111.3 120.95z m-10.31-221.81c-55.67 0-100.96 45.24-100.96 100.85 0 55.62 45.3 100.88 100.96 100.88 55.68 0 100.99-45.26 100.99-100.88-0.01-55.6-45.31-100.85-100.99-100.85zM491.41 292.05h-87.9v64.93c62.23 5.25 111.3 57.44 111.3 120.95 0 66.97-54.55 121.47-121.6 121.47s-121.59-54.49-121.59-121.47c0-63.5 49.05-115.69 111.28-120.95v-64.93H295c-5.69 0-10.31-4.62-10.31-10.3 0-5.69 4.62-10.3 10.31-10.3h87.89v-94.33c0-5.69 4.62-10.3 10.31-10.3s10.31 4.61 10.31 10.3v94.33h87.9c5.69 0 10.31 4.61 10.31 10.3 0 5.68-4.62 10.3-10.31 10.3zM292.23 477.92c0 55.61 45.28 100.87 100.97 100.87 55.68 0 100.98-45.26 100.98-100.87 0-55.62-45.3-100.86-100.98-100.86-55.68 0-100.97 45.24-100.97 100.86zM512.3 824.47c-242.85 0-439.72-196.66-439.72-439.25C72.58 142.65 269.44-54 512.3-54c242.83 0 439.69 196.65 439.69 439.22 0 242.6-196.86 439.25-439.69 439.25z m0-857.05c-231 0-418.27 187.06-418.27 417.8 0 230.76 187.26 417.82 418.27 417.82 231 0 418.25-187.06 418.25-417.82 0-230.74-187.26-417.8-418.25-417.8z m0 0M512.29-62.36c-247.07 0-448.08 200.79-448.08 447.58 0 246.81 201.01 447.61 448.08 447.61 247.06 0 448.06-200.8 448.06-447.61 0-246.79-200.99-447.58-448.06-447.58z m0 878.47c-237.85 0-431.36-193.3-431.36-430.89 0-237.58 193.51-430.86 431.36-430.86 237.84 0 431.34 193.28 431.34 430.86 0 237.6-193.49 430.89-431.34 430.89z m0-857.05c-235.24 0-426.63 191.18-426.63 426.17 0 235 191.39 426.18 426.63 426.18s426.62-191.19 426.62-426.18-191.38-426.17-426.62-426.17z m0 835.62c-226.02 0-409.9-183.68-409.9-409.46 0-225.77 183.88-409.44 409.9-409.44 226.02 0 409.89 183.67 409.89 409.44 0.01 225.78-183.87 409.46-409.89 409.46z m119.08-636.22c-64.49 0-118.14 47.17-128.23 108.79-3.21-2.6-7.3-4.16-11.73-4.16h-79.54v-85.96c0-10.29-8.37-18.67-18.67-18.67-10.3 0-18.68 8.38-18.68 18.67v85.96H295c-10.3 0-18.67 8.37-18.67 18.66s8.37 18.66 18.67 18.66h79.53v49.11c-63 9.15-111.28 64.12-111.28 128.4 0 71.59 58.3 129.83 129.96 129.83 62.99 0 115.66-45.01 127.48-104.52 0.92 2.01 2.21 3.86 3.82 5.47l106.86 106.76 106.9-106.78c3.53-3.52 5.47-8.21 5.48-13.19 0-4.98-1.95-9.67-5.47-13.2-7-7.03-19.32-7.07-26.4 0l-61.83 61.77v-127.38c62.99-9.15 111.28-64.12 111.29-128.4 0-34.62-13.53-67.21-38.11-91.76-24.58-24.54-57.19-38.06-91.86-38.06z m-1.94 425.94v-182.85l-7.66-0.65c-58.11-4.91-103.62-54.38-103.62-112.63 0-62.36 50.79-113.09 113.22-113.09 30.19 0 58.62 11.78 80.03 33.17 21.42 21.39 33.21 49.77 33.2 79.93-0.01 58.24-45.53 107.71-103.64 112.62l-7.66 0.65V584.39l90.37-90.27c0.96-0.95 1.82-0.95 2.75-0.02 0.48 0.49 0.58 1.02 0.58 1.38 0 0.36-0.1 0.89-0.57 1.36l-95.09 94.98-95.05-94.97c-0.48-0.48-0.58-1.01-0.58-1.37 0-0.36 0.1-0.89 0.57-1.36 0.77-0.77 2.02-0.76 2.78-0.01l90.37 90.29zM295 283.69c-1.07 0-1.94-0.87-1.94-1.93s0.87-1.93 1.94-1.93h96.25v-102.69c0-2.14 3.89-2.14 3.89 0V279.82h96.26c1.07 0 1.94 0.87 1.94 1.93s-0.87 1.93-1.94 1.93h-96.26v80.98l7.66 0.65c58.12 4.9 103.64 54.37 103.64 112.61 0 62.37-50.79 113.1-113.24 113.1s-113.24-50.73-113.24-113.1c0-58.24 45.52-107.7 103.63-112.61l7.66-0.65v-80.98H295z m116.87 16.72h79.54c3.82 0 7.37-1.16 10.34-3.13 4.25 60.35 50.93 110.69 110.96 119.42V544.06L550.9 482.3c-7.29-7.27-19.13-7.27-26.4 0-0.52 0.52-1.01 1.07-1.46 1.64 0.09-1.99 0.14-4 0.14-6.01 0-64.28-48.29-119.25-111.29-128.4v-49.12z m219.5-121.35c-60.28 0-109.32 48.99-109.32 109.21 0 60.23 49.04 109.24 109.32 109.24 60.29 0 109.35-49.01 109.35-109.24 0-60.22-49.06-109.21-109.35-109.21z m0 201.73c-51.06 0-92.6-41.5-92.6-92.51 0-51 41.54-92.49 92.6-92.49 51.08 0 92.63 41.49 92.63 92.49-0.01 51.01-41.56 92.51-92.63 92.51z m-238.16-12.1c-60.28 0-109.33 49-109.33 109.23s49.05 109.23 109.33 109.23 109.33-49 109.33-109.23-49.05-109.23-109.33-109.23z m0 201.73c-51.06 0-92.61-41.5-92.61-92.51 0-51.01 41.55-92.5 92.61-92.5s92.61 41.5 92.61 92.5c-0.01 51.02-41.55 92.51-92.61 92.51z"  horiz-adv-x="1024" />

    
    <glyph glyph-name="location" unicode="&#58891;" d="M512.103132 575.879021a106.221743 106.221743 0 1 0-75.507022-31.354611A106.221743 106.221743 0 0 0 512.103132 575.879021m0 63.989002a170.850635 170.850635 0 1 1 120.939214-49.911422A169.570855 169.570855 0 0 1 512.103132 639.868023zM805.172761 771.685367a407.609942 407.609942 0 0 1-586.139257 0 431.285873 431.285873 0 0 1 0-599.576948L512.103132-128l293.069629 300.108419a431.285873 431.285873 0 0 1 0 599.576948z m-44.152411-557.344207l-248.917218-255.956007-248.917217 255.956007a365.377201 365.377201 0 0 0 0 508.712565 346.82039 346.82039 0 0 0 497.834435 0 365.377201 365.377201 0 0 0 0-508.712565z"  horiz-adv-x="1024" />

    
    <glyph glyph-name="Vue" unicode="&#59101;" d="M615.6 772.4h165.5L512 306.3 242.9 772.4H63.5L512-4.4l448.5 776.9zM781.1 772.4H615.6L512 593 408.4 772.4H242.9L512 306.3z"  horiz-adv-x="1024" />

    
    <glyph glyph-name="html" unicode="&#58882;" d="M188.864 25.568L116.96 832h790.08l-72-806.304L511.52-64 188.864 25.568zM512 4.544l261.44 72.48 61.504 689.024H512v-761.504zM512 466.976h-130.88l-9.024 101.28H512V667.168H264l2.368-26.56 24.288-272.544H512v98.912zM512 210.112l-0.448-0.128-110.144 29.728-7.04 78.88H295.072l13.856-155.264 202.624-56.256 0.448 0.128v102.912zM511.648 466.976v-98.912h121.792l-11.456-128.288-110.336-29.76v-102.912l202.784 56.224 1.472 16.704 23.232 260.384 2.432 26.56H511.648zM511.648 667.168V568.256h238.912l1.984 22.208 4.512 50.144 2.368 26.56h-247.776z"  horiz-adv-x="1024" />

    
    <glyph glyph-name="185078emailmailstreamline" unicode="&#58893;" d="M938.666667 42.66666699999996L85.333333 42.66666699999996c-47.061333 0-85.333333 38.272-85.333333 85.333333L0 640c0 47.061333 38.272 85.333333 85.333333 85.333333l853.333333 0c47.061333 0 85.333333-38.272 85.333333-85.333333l0-512C1024 80.93866700000001 985.728 42.66666699999996 938.666667 42.66666699999996zM85.333333 682.666667c-23.530667 0-42.666667-19.136-42.666667-42.666667l0-512c0-23.530667 19.136-42.666667 42.666667-42.666667l853.333333 0c23.530667 0 42.666667 19.136 42.666667 42.666667L981.333333 640c0 23.530667-19.136 42.666667-42.666667 42.666667L85.333333 682.666667zM512 273.25866699999995L137.749333 515.413333c-9.898667 6.421333-12.736 19.605333-6.336 29.504s19.605333 12.714667 29.504 6.336L512 324.074667 863.082667 551.253333c9.898667 6.378667 23.104 3.562667 29.504-6.336s3.562667-23.082667-6.336-29.504L512 273.25866699999995zM128.021333 170.66666699999996c-6.890667 0-13.674667 3.328-17.770667 9.493333-6.549333 9.813333-3.904 23.04 5.909333 29.589333l192 128c9.813333 6.549333 23.061333 3.904 29.589333-5.909333 6.549333-9.813333 3.904-23.04-5.909333-29.589333l-192-128C136.192 171.84000000000003 132.074667 170.66666699999996 128.021333 170.66666699999996zM895.978667 170.66666699999996c-4.053333 0-8.170667 1.173333-11.818667 3.584l-192 128c-9.813333 6.549333-12.458667 19.776-5.909333 29.589333 6.528 9.813333 19.754667 12.458667 29.589333 5.909333l192-128c9.813333-6.549333 12.458667-19.776 5.909333-29.589333C909.653333 173.99466700000005 902.869333 170.66666699999996 895.978667 170.66666699999996z"  horiz-adv-x="1024" />

    
    <glyph glyph-name="email" unicode="&#58883;" d="M1181.91058813 829.83529406h-1022.11764657c-70.30588219 0-127.79294156-50.82352969-127.79294156-112.94117625v-677.64705937c0-62.1176475 57.48705844-112.94117625 127.79294156-112.94117625h1022.11764657c70.30588219 0 127.79294156 50.82352969 127.79294156 112.94117625v677.64705937c0 62.1176475-57.48705844 112.94117625-127.79294156 112.94117625z m0-225.8823525l-511.05882375-282.35294156-511.05882282 282.35294156v112.94117625l511.05882282-282.35294156 511.05882375 282.35294156v-112.94117625z"  horiz-adv-x="1385" />

    
    <glyph glyph-name="githubcolor" unicode="&#58983;" d="M522.87183 896C234.125617 896 0 660.981106 0 370.993021 0 139.111489 149.809021-57.670809 357.61566-127.084936c26.144681-4.836766 35.709277 11.372936 35.709276 25.273191 0 12.484085-0.457532 45.491745-0.740766 89.284085-145.451574-31.722213-176.149787 70.372766-176.149787 70.372766-23.748085 60.65566-58.041191 76.8-58.041192 76.8-47.474383 32.571915 3.616681 31.918298 3.616681 31.918298 52.441872-3.70383 80.068085-54.097702 80.068085-54.097702 46.668255-80.242383 122.378894-57.082553 152.18383-43.618042 4.72783 33.922723 18.257702 57.060766 33.203745 70.17668-116.125957 13.268426-238.178043 58.280851-238.178043 259.442383 0 57.300426 20.349277 104.164766 53.814468 140.876256-5.381447 13.290213-23.31234 66.647149 5.12 138.937191 0 0 43.923064 14.09634 143.795745-53.814468 41.722553 11.634383 86.429957 17.451574 130.897702 17.669447 44.42417-0.217872 89.153362-6.035064 130.941277-17.669447 99.785532 67.910809 143.621447 53.814468 143.621447 53.814468 28.541277-72.290043 10.588596-125.646979 5.185361-138.937191 33.55234-36.711489 53.770894-83.554043 53.770894-140.876256 0-201.662638-122.269957-246.043234-238.744511-259.050212 18.758809-16.209702 35.513191-48.215149 35.513192-97.214639 0-70.154894-0.653617-126.779915-0.653617-144.013617 0-14.030979 9.412085-30.371404 35.948936-25.207829C896.108936-57.474723 1045.787234 139.155064 1045.787234 370.993021 1045.787234 660.981106 811.661617 896 522.87183 896"  horiz-adv-x="1045" />

    
    <glyph glyph-name="xingbie1" unicode="&#59241;" d="M724.224 250.3168m-130.4576 0a130.4576 130.4576 0 1 1 260.9152 0 130.4576 130.4576 0 1 1-260.9152 0ZM300.1856 511.2832m-130.4576 0a130.4576 130.4576 0 1 1 260.9152 0 130.4576 130.4576 0 1 1-260.9152 0ZM512.1024 896a512 512 0 0 1-512-512 512 512 0 0 1 512-512 512 512 0 0 1 512 512 512 512 0 0 1-512 512z m-48.6912-613.0688a30.72 30.72 0 0 0 32.6144-32.6144 30.72 30.72 0 0 0-32.6144-32.6656h-130.5088v-130.4576a30.72 30.72 0 0 0-32.6144-32.6144 30.72 30.72 0 0 0-32.6144 32.6144v130.4576h-130.4576a30.72 30.72 0 0 0-32.6656 32.6656 30.72 30.72 0 0 0 32.6656 32.6144h130.4576v35.84a196.096 196.096 0 0 0-163.1232 192.4096 196.352 196.352 0 0 0 195.7376 195.7376 196.3008 196.3008 0 0 0 195.7376-195.7376 196.0448 196.0448 0 0 0-163.1232-192.4096v-35.84z m261.12-228.352a196.2496 196.2496 0 0 0-195.6864 195.7376 195.9936 195.9936 0 0 0 163.072 192.3584v159.8976l-81.5616-81.5616a31.488 31.488 0 0 0-45.6192 0 31.5392 31.5392 0 0 0 0 45.6704l137.0112 137.0112a31.4368 31.4368 0 0 0 45.6192 0l137.0112-137.0112a31.5392 31.5392 0 0 0 0-45.6704 25.6 25.6 0 0 0-22.8352-9.7792 29.6448 29.6448 0 0 0-22.8352 9.7792l-81.5104 81.5616v-159.8976a195.9936 195.9936 0 0 0 163.072-192.3584 196.3008 196.3008 0 0 0-196.0448-195.7376z"  horiz-adv-x="1024" />

    
    <glyph glyph-name="mail_gaoliang" unicode="&#58885;" d="M868.565333 682.666667H155.434667A27.264 27.264 0 0 1 128 655.530667v-543.061334c0-15.018667 12.245333-27.136 27.434667-27.136h713.130666a27.264 27.264 0 0 1 27.434667 27.136V655.530667A27.264 27.264 0 0 1 868.565333 682.666667z m-34.261333-93.994667v-442.24H189.696V588.672l-23.637333 18.218667 33.706666 42.837333 36.693334-28.245333H787.626667l36.693333 28.245333 33.664-42.837333-23.722667-18.218667z m-46.634667 32.896L512 409.472 236.373333 621.568l-36.693333 28.245333-33.706667-42.837333 23.637334-18.218667 292.821333-225.365333c17.322667-13.312 41.557333-13.312 58.88 0l292.992 225.28 23.637333 18.218667-33.706666 42.837333-36.565334-28.16z"  horiz-adv-x="1024" />

    
    <glyph glyph-name="xingbie2" unicode="&#58948;" d="M584.468251 603.58425a290.599503 290.599503 0 1 1-324.744945-290.599504v-157.65023h-185.257183a32.692444 32.692444 0 0 1 0-65.384888h185.257183v-185.257184a32.692444 32.692444 0 1 1 65.384888 0v185.257184h185.257184a32.692444 32.692444 0 1 1 0 65.384888H326.924441V314.800993a292.41575 292.41575 0 0 1 257.54381 288.783257z m-290.599503-226.667613a227.030862 227.030862 0 1 0 226.667612 226.667613 227.030862 227.030862 0 0 0-228.12061-226.667613z m625.87868 77.735367V764.140475l46.85917-46.85917a32.329195 32.329195 0 0 1 23.24796-9.444483 30.876197 30.876197 0 0 1 22.884711 9.444483 32.692444 32.692444 0 0 1 0 46.132672L908.123448 866.213551a32.692444 32.692444 0 0 1-46.132671 0l-102.436325-102.799574a32.692444 32.692444 0 0 1 0-46.132672 33.055694 33.055694 0 0 1 46.49592 0l46.85917 46.85917v-309.488471a290.599503 290.599503 0 1 1 65.384889 0z m-32.692444-516.903866a227.030862 227.030862 0 1 0 226.667613 226.667612 227.030862 227.030862 0 0 0-228.12061-226.667612z"  horiz-adv-x="1177" />

    
    <glyph glyph-name="xiazai" unicode="&#58886;" d="M3829.693561 191.188462s7.679056 0.188608 22.255792 0c14.549791-0.188608 18.537511-11.127896 18.537511-11.127896s29.234302-53.780338 37.075022-66.767373c6.978511-11.585945-1.401091-11.370392-3.314119-11.181784l-0.40416 0.053888 0.40416-0.053888c-0.080832-0.107776-8.271826-0.377217-93.064773 0.053888-118.284411 16.031714-122.326019 122.406852-122.326019 122.406852v189.201169h-66.74043V484.285915c0 9.619028 11.127896 11.127896 11.127896 11.127896h55.58559v70.485653c0 11.505112 11.127896 14.819231 11.127895 14.819232l61.917444 17.729189c9.349588 2.667462 12.232602-2.85607 12.232601-2.85607s3.691336 1.966916 3.691336-6.547405v-97.348879h96.378893c9.403476 0 11.127896-11.127896 11.127895-11.127895v-70.485654h-107.506788v-163.227098c0-47.421541 51.894254-55.639478 51.894254-55.639478z m-285.418397-81.613549h-59.330814c-11.639833 0-11.100952 14.819231-11.100951 14.819231v274.559942c0 16.651427-22.255791 22.255791-22.255791 22.255792h-122.32602c-18.268071 0-18.537511-22.282735-18.537511-22.282736v-278.224334c0-10.912343-11.127896-11.127896-11.127896-11.127895h-59.30387c-13.040924 0-11.127896 14.819231-11.127895 14.819231V469.43974c0 27.725435 33.356743 33.410631 33.356743 33.410631h259.498214c25.920183 0 33.356743-33.410631 33.356743-33.410631v-341.273428c0-19.399721-11.100952-18.564455-11.100952-18.564455z m-422.617536 155.817482h-229.832808v-55.639478c0-20.073323 25.947127-25.974071 25.947128-25.974071h185.375113c13.175644 0 22.228847-11.127896 22.228847-11.127895s16.166434-33.680071 22.228847-48.229863c6.062413-14.576735-11.127896-14.819231-11.127896-14.819231H2858.495022c-33.491463 0-40.793303 40.793303-40.793303 40.793302V465.694516c0 18.13335 25.947127 25.947127 25.947127 25.947127h278.06267c27.914043 0 33.329799-33.383687 33.329799-33.383687v-159.508818c0-26.917113-33.356743-33.410631-33.356743-33.410631z m-40.766359 133.534747s-2.344133 18.564455-18.537511 18.564456h-151.991426s-18.537511-4.984651-18.537512-18.564456v-40.793302s0.538881-18.564455 18.537512-18.564456h151.964482s18.564455 4.58049 18.564455 22.282736v37.075022zM2732.396834 109.574913H2673.119909c-7.813777 0-11.127896 11.127896-11.127896 11.127895V398.927142c0 17.244197-22.255791 22.282735-22.255791 22.282736h-55.58559c-15.519777 0-18.537511-22.282735-18.537511-22.282736v-278.224334c0-9.214868-11.127896-11.127896-11.127896-11.127895h-59.30387c-8.244881 0-11.127896 11.127896-11.127895 11.127895V398.927142c0 17.648357-22.255791 22.282735-22.255791 22.282736h-55.58559c-16.974756 0-18.537511-22.282735-18.537512-22.282736v-278.224334c0-11.909273-11.127896-11.127896-11.127895-11.127895h-59.30387c-11.127896 0-11.127896 11.127896-11.127896 11.127895v352.428268c0 20.423595 29.638463 29.692351 29.638463 29.692351h370.723282c29.746239 0 37.075023-37.101967 37.075023-37.101967v-345.018652c0-12.798427-11.127896-11.127896-11.127896-11.127895z m-537.53394 155.817482h-229.832807v-55.639478c0-20.073323 25.947127-25.974071 25.947127-25.974071h185.375113c13.202588 0 22.228847-11.127896 22.228847-11.127895s16.166434-33.680071 22.255792-48.229863c6.062413-14.576735-11.127896-14.819231-11.127896-14.819231H1931.700288c-33.491463 0-40.766358 40.793303-40.766358 40.793302V465.694516c0 18.13335 25.947127 25.947127 25.947127 25.947127H2194.862894c27.940987 0 33.383687-33.383687 33.383687-33.383687v-159.508818c0-26.917113-33.383687-33.410631-33.383687-33.410631z m-40.766358 133.534747s-2.344133 18.564455-18.537511 18.564456h-151.964483s-18.564455-4.984651-18.564455-18.564456v-40.793302s0.538881-18.564455 18.537511-18.564456h151.991427s18.537511 4.58049 18.537511 22.282736v37.075022zM1835.321396 109.574913h-140.863531s-103.087963 4.84993-111.225068 107.58762c-0.323329 105.485984 0 434.041816 0 434.041816h66.74043s22.228847 0.404161 22.228847-22.255791v-389.530234s7.759888-32.225092 51.894254-44.511582c49.900394 0.269441 59.330814 0 59.330814 0s19.318889 6.197133 33.356743-18.564456c14.01091-24.734644 29.638463-51.921198 29.638463-51.921198s2.263301-14.819231-11.100952-14.819231z m-715.445549 22.255791V621.511998c0 21.71691 18.510567 25.974071 18.510567 25.974071h348.467491c19.480553 0 11.127896-22.255791 11.127896-22.255791s-10.858455-30.096512-18.537512-44.511582c-7.679056-14.415071-22.228847-14.819231-22.228847-14.819232H1231.073971c-21.043309 0-22.255791-18.591399-22.255792-18.591399v-122.406852h255.806879c15.00784 0 7.409616-18.537511 7.409616-18.537511s-19.157225-40.874135-25.947127-51.948142c-6.789902-11.047063-22.255791-11.127896-22.255792-11.127896h-215.013576v-129.843411c0-17.675301 18.537511-22.255791 18.537512-22.255791h237.269367c17.190308 0 22.228847-11.127896 22.228847-11.127896s23.495218-36.670862 33.356743-51.921198c9.888469-15.250336-3.691336-18.564455-3.691336-18.564455H1142.104694c-15.465889 0-22.228847 22.255791-22.228847 22.255791z m-219.48629 30.797057c-0.269441-42.490778-22.363567-51.948142-22.363567-51.948142s-380.854248-220.106003-405.615836-233.874416c-24.519092-10.535126-40.954967 0-40.954967 0S32.979526 107.931325 18.429735 118.089235c-14.549791 10.15791-14.900064 26.001015-14.900064 26.001015s0.404161 457.671755 0 478.876727c-0.404161 21.178029 26.054903 37.101967 26.054904 37.101967L427.763851 890.252024c24.519092 12.933147 48.364583 0 48.364583 0s351.78161-204.505394 390.742716-226.4648c38.233617-18.160295 33.518407-55.666422 33.518407-55.666422s0.215552-405.993053 0-445.493041z m-158.996881 459.36923C659.859959 668.933539 467.80272 780.212495 467.80272 780.212495s-18.753064 10.130965-37.991121 0L117.179704 600.091473s-20.773868-12.475098-20.477483-29.045694c0.323329-16.597539 0-374.791835 0-374.791834s0.269441-12.394266 11.693721-20.342764 324.325616-188.823952 324.325616-188.823952 12.879259-8.244881 32.14426 0c19.453609 10.777623 318.478755 183.03098 318.478755 183.03098s17.325029 7.409616 17.513637 40.685526c0.080832 9.56514 0.107776 46.801827 0.107777 93.549767L448.887992 91.037401v81.61355c0 33.518407 25.947127 55.639478 25.947127 55.639478l311.419412 187.638413c11.747609 12.28649 14.172574 31.928708 14.657567 39.365268v82.718255L448.887992 324.777097v85.304885c0 33.545351 22.255791 48.229862 22.255791 48.229862l270.248893 163.712091z"  horiz-adv-x="3933" />

    
    </font>
</defs>
</svg>
